<svg width="41" height="40" viewBox="0 0 41 40" fill="none" xmlns="http://www.w3.org/2000/svg">
<path d="M35.9139 0C37.0821 0 38.2025 0.468252 39.0285 1.30175C39.8546 2.13524 40.3186 3.2657 40.3186 4.44444V35.5556C40.3186 36.7343 39.8546 37.8648 39.0285 38.6983C38.2025 39.5317 37.0821 40 35.9139 40H5.08054C3.91233 40 2.79196 39.5317 1.96591 38.6983C1.13985 37.8648 0.675781 36.7343 0.675781 35.5556V4.44444C0.675781 3.2657 1.13985 2.13524 1.96591 1.30175C2.79196 0.468252 3.91233 0 5.08054 0H35.9139ZM34.8127 34.4444V22.6667C34.8127 20.7453 34.0562 18.9027 32.7098 17.5441C31.3633 16.1855 29.5371 15.4222 27.6329 15.4222C25.7609 15.4222 23.5805 16.5778 22.5234 18.3111V15.8444H16.3788V34.4444H22.5234V23.4889C22.5234 21.7778 23.8889 20.3778 25.5847 20.3778C26.4025 20.3778 27.1867 20.7056 27.765 21.289C28.3432 21.8724 28.668 22.6638 28.668 23.4889V34.4444H34.8127ZM9.22102 12.3556C10.2023 12.3556 11.1434 11.9622 11.8373 11.2621C12.5312 10.562 12.921 9.61236 12.921 8.62222C12.921 6.55556 11.2692 4.86667 9.22102 4.86667C8.23388 4.86667 7.28717 5.26234 6.58915 5.96664C5.89114 6.67095 5.499 7.62619 5.499 8.62222C5.499 10.6889 7.17281 12.3556 9.22102 12.3556ZM12.2823 34.4444V15.8444H6.18173V34.4444H12.2823Z" fill="#F5F5F5"/>
</svg>
