<svg width="40" height="32" viewBox="0 0 40 32" fill="none" xmlns="http://www.w3.org/2000/svg">
<path d="M38.6722 0.513672H1.3278C0.975724 0.514222 0.638235 0.654362 0.38933 0.903364C0.140425 1.15237 0.000417454 1.48991 5.297e-06 1.84198V4.51419C5.297e-06 4.63731 0.133512 4.77861 0.242603 4.83575L19.8717 16.0477C19.922 16.0764 19.979 16.0913 20.0369 16.0908C20.0961 16.0911 20.1543 16.0753 20.2052 16.0451L39.241 4.84666C39.348 4.78692 39.6317 4.629 39.7382 4.55627C39.867 4.46848 40 4.389 40 4.23159V1.84146C39.9995 1.48948 39.8594 1.15207 39.6105 0.90318C39.3616 0.65429 39.0242 0.514221 38.6722 0.513672ZM39.8343 8.54328C39.7833 8.51393 39.7253 8.49866 39.6665 8.49902C39.6076 8.49939 39.5499 8.51538 39.4992 8.54536L28.7268 14.8835C28.6838 14.9086 28.6471 14.9429 28.6193 14.9841C28.5914 15.0252 28.5732 15.0721 28.566 15.1213C28.5587 15.1704 28.5627 15.2206 28.5775 15.268C28.5922 15.3154 28.6175 15.3589 28.6514 15.3952L39.4254 27.0092C39.4563 27.0428 39.4938 27.0696 39.5356 27.0879C39.5773 27.1061 39.6225 27.1154 39.668 27.1152C39.756 27.1151 39.8404 27.0801 39.9026 27.0178C39.9648 26.9556 39.9999 26.8713 40 26.7833V8.83159C40.0001 8.77322 39.9849 8.71584 39.9558 8.66523C39.9267 8.61462 39.8848 8.57256 39.8343 8.54328ZM25.6223 17.0119C25.5712 16.9562 25.5025 16.9197 25.4277 16.9085C25.3529 16.8974 25.2766 16.9122 25.2114 16.9506L20.8935 19.4913C20.6406 19.6377 20.3539 19.7156 20.0617 19.7175C19.7695 19.7194 19.4818 19.6452 19.227 19.5022L15.427 17.3313C15.3657 17.2964 15.2948 17.2819 15.2246 17.2899C15.1545 17.2979 15.0887 17.3281 15.0369 17.376L0.606759 30.7609C0.568929 30.7963 0.539883 30.84 0.521937 30.8886C0.503991 30.9372 0.497641 30.9893 0.503393 31.0407C0.509145 31.0922 0.52684 31.1416 0.555068 31.185C0.583296 31.2284 0.621275 31.2647 0.665979 31.2908C0.890395 31.4228 1.10702 31.4856 1.32728 31.4856H38.2899C38.3545 31.4854 38.4176 31.4664 38.4716 31.4309C38.5256 31.3953 38.568 31.3449 38.5938 31.2856C38.6194 31.2264 38.6272 31.1611 38.6163 31.0975C38.6054 31.034 38.5763 30.975 38.5325 30.9277L25.6223 17.0119ZM11.8618 15.7926C11.8999 15.7572 11.9292 15.7134 11.9473 15.6646C11.9654 15.6159 11.9718 15.5635 11.966 15.5118C11.9602 15.4602 11.9423 15.4106 11.9139 15.367C11.8854 15.3235 11.8471 15.2872 11.8021 15.2612L0.49507 8.80302C0.444609 8.77437 0.38751 8.75947 0.329484 8.75981C0.271458 8.76015 0.214538 8.77572 0.164417 8.80497C0.114297 8.83421 0.0727314 8.87609 0.0438788 8.92644C0.0150261 8.97679 -0.000102594 9.03382 5.297e-06 9.09185V26.0373C-0.000360817 26.102 0.0182591 26.1654 0.0535602 26.2197C0.0888612 26.2739 0.139294 26.3166 0.198616 26.3425C0.257938 26.3684 0.323545 26.3763 0.387316 26.3652C0.451088 26.3542 0.510225 26.3247 0.557408 26.2804L11.8618 15.7926Z" fill="#F5F5F5"/>
</svg>
