<svg width="115" height="115" viewBox="0 0 115 115" fill="none" xmlns="http://www.w3.org/2000/svg">
<path d="M14.2021 13.9925C13.991 7.92286 18.7193 2.32617 25.1113 2.32617H90.6079C96.9999 2.32617 101.728 7.92286 101.517 13.9925C101.314 19.8225 101.578 27.375 103.478 33.5328C105.385 39.7102 108.6 43.6138 113.867 44.1161V49.8045C108.6 50.3059 105.385 54.2104 103.478 60.3878C101.578 66.5456 101.314 74.0981 101.517 79.9281C101.728 85.9977 96.9999 91.5935 90.6079 91.5935H25.1113C18.7193 91.5935 13.991 85.9968 14.2021 79.9281C14.4051 74.0981 14.1415 66.5456 12.24 60.3878C10.3341 54.2113 7.11002 50.3068 1.84375 49.8045V44.1161C7.11002 43.6147 10.3341 39.7102 12.24 33.5328C14.1415 27.375 14.4042 19.8225 14.2021 13.9925Z" fill="url(#paint0_linear_972_1000)"/>
<g filter="url(#filter0_d_972_1000)">
<path d="M60.6265 71.0146C70.9747 71.0146 77.21 65.9478 77.21 57.591C77.21 51.2738 72.7613 46.7005 66.1546 45.9764V45.7128C71.0085 44.9237 74.8169 40.4162 74.8169 35.3815C74.8169 28.2093 69.1543 23.5371 60.525 23.5371H41.1094V71.0146H60.6265ZM48.6601 29.5586H58.7055C64.165 29.5586 67.267 31.9927 67.267 36.4022C67.267 41.1065 63.66 43.7392 57.121 43.7392H48.6601V29.5586ZM48.6601 64.9939V49.3652H58.6378C65.7832 49.3652 69.4909 51.997 69.4909 57.1297C69.4909 62.2624 65.8848 64.9939 59.076 64.9939H48.6601Z" fill="url(#paint1_linear_972_1000)"/>
<path d="M60.6265 71.0146C70.9747 71.0146 77.21 65.9478 77.21 57.591C77.21 51.2738 72.7613 46.7005 66.1546 45.9764V45.7128C71.0085 44.9237 74.8169 40.4162 74.8169 35.3815C74.8169 28.2093 69.1543 23.5371 60.525 23.5371H41.1094V71.0146H60.6265ZM48.6601 29.5586H58.7055C64.165 29.5586 67.267 31.9927 67.267 36.4022C67.267 41.1065 63.66 43.7392 57.121 43.7392H48.6601V29.5586ZM48.6601 64.9939V49.3652H58.6378C65.7832 49.3652 69.4909 51.997 69.4909 57.1297C69.4909 62.2624 65.8848 64.9939 59.076 64.9939H48.6601Z" fill="white"/>
</g>
<path d="M11.0078 108.649V92.8516H15.5028C16.8684 92.8516 17.9517 93.1858 18.7527 93.8544C19.5531 94.5224 19.9532 95.3925 19.9532 96.4648C19.9532 97.3614 19.711 98.1401 19.2265 98.8009C18.7414 99.4618 18.0728 99.9317 17.2208 100.211V100.255C18.286 100.38 19.138 100.784 19.7769 101.467C20.4158 102.142 20.7352 103.024 20.7352 104.111C20.7352 105.462 20.2507 106.556 19.2817 107.394C18.3121 108.231 17.089 108.649 15.6123 108.649H11.0078ZM12.8585 94.5259V99.6265H14.7538C15.7673 99.6265 16.5641 99.3843 17.1442 98.8998C17.7243 98.407 18.0144 97.7164 18.0144 96.8282C18.0144 95.2934 17.0044 94.5259 14.9845 94.5259H12.8585ZM12.8585 101.29V106.975H15.3701C16.4567 106.975 17.2977 106.718 17.8932 106.204C18.4953 105.69 18.7963 104.985 18.7963 104.089C18.7963 102.223 17.5257 101.29 14.9845 101.29H12.8585ZM28.4142 108.917C26.7469 108.917 25.414 108.391 24.4153 107.341C23.4237 106.284 22.9279 104.885 22.9279 103.144C22.9279 101.25 23.4457 99.7696 24.4812 98.7039C25.5173 97.6393 26.9165 97.107 28.6787 97.107C30.3602 97.107 31.6712 97.6247 32.6117 98.6602C33.5587 99.6957 34.0323 101.131 34.0323 102.967C34.0323 104.767 33.5216 106.21 32.5004 107.298C31.4874 108.377 30.1254 108.917 28.4142 108.917ZM28.546 98.6273C27.3858 98.6273 26.4679 99.0239 25.7922 99.8171C25.1165 100.603 24.7787 101.69 24.7787 103.078C24.7787 104.415 25.1201 105.469 25.8029 106.239C26.4857 107.011 27.4001 107.397 28.546 107.397C29.7139 107.397 30.6102 107.019 31.2348 106.262C31.866 105.505 32.1815 104.429 32.1815 103.034C32.1815 101.624 31.866 100.537 31.2348 99.7726C30.6102 99.009 29.7139 98.6273 28.546 98.6273ZM41.6346 108.917C39.9674 108.917 38.6344 108.391 37.6357 107.341C36.6442 106.284 36.1484 104.885 36.1484 103.144C36.1484 101.25 36.6661 99.7696 37.7016 98.7039C38.7377 97.6393 40.1369 97.107 41.8991 97.107C43.5806 97.107 44.8916 97.6247 45.8321 98.6602C46.7798 99.6957 47.2536 101.131 47.2536 102.967C47.2536 104.767 46.743 106.21 45.7217 107.298C44.7082 108.377 43.3464 108.917 41.6346 108.917ZM41.7664 98.6273C40.6062 98.6273 39.6883 99.0239 39.0126 99.8171C38.3369 100.603 37.9991 101.69 37.9991 103.078C37.9991 104.415 38.3405 105.469 39.0233 106.239C39.7061 107.011 40.6205 107.397 41.7664 107.397C42.9343 107.397 43.8306 107.019 44.4552 106.262C45.0864 105.505 45.402 104.429 45.402 103.034C45.402 101.624 45.0864 100.537 44.4552 99.7726C43.8306 99.009 42.9349 98.6273 41.7664 98.6273ZM55.3716 108.543C54.9459 108.778 54.3839 108.895 53.6857 108.895C51.7103 108.895 50.7226 107.794 50.7226 105.59V98.914H48.7837V97.3715H50.7226V94.6177L52.5296 94.0334V97.3715H55.3707V98.914H52.5296V105.27C52.5296 106.027 52.6582 106.567 52.9153 106.89C53.1718 107.213 53.5975 107.375 54.1924 107.375C54.6478 107.375 55.0409 107.25 55.3716 107.001V108.543ZM57.1012 108.24V106.301C58.0851 107.028 59.1684 107.391 60.3511 107.391C61.9376 107.391 62.7309 106.863 62.7309 105.806C62.7309 105.504 62.6611 105.251 62.5216 105.045C62.3797 104.821 62.1918 104.629 61.9703 104.483C61.7169 104.308 61.4433 104.164 61.1553 104.054C60.8235 103.912 60.4891 103.776 60.1525 103.646C59.7021 103.47 59.261 103.272 58.8308 103.051C58.4863 102.866 58.1677 102.636 57.8832 102.368C57.6388 102.117 57.4445 101.822 57.3105 101.498C57.1858 101.175 57.1235 100.797 57.1235 100.363C57.1235 99.8347 57.2446 99.3683 57.4869 98.9639C57.7274 98.553 58.0589 98.2026 58.4559 97.9397C58.8759 97.653 59.3419 97.4403 59.8337 97.3109C60.3584 97.1714 60.8991 97.101 61.4421 97.1016C62.4188 97.1016 63.2928 97.2708 64.0641 97.6093V99.4377C63.2341 98.8939 62.279 98.6219 61.199 98.6219C60.8605 98.6219 60.556 98.6623 60.2852 98.743C60.0331 98.8079 59.7944 98.9164 59.5798 99.0637C59.393 99.196 59.2386 99.369 59.1283 99.5695C59.0244 99.7665 58.9715 99.9864 58.9742 100.209C58.9742 100.502 59.0256 100.748 59.1283 100.946C59.2375 101.145 59.3955 101.322 59.6021 101.475C59.8075 101.63 60.0572 101.769 60.3511 101.894C60.645 102.019 60.9793 102.155 61.354 102.302C61.8527 102.493 62.3007 102.691 62.6979 102.897C63.0655 103.077 63.4066 103.307 63.7114 103.58C63.9905 103.829 64.2034 104.119 64.35 104.45C64.5044 104.78 64.5816 105.173 64.5816 105.628C64.5816 106.187 64.4569 106.671 64.2075 107.083C63.9641 107.494 63.6369 107.836 63.226 108.107C62.7906 108.389 62.3102 108.594 61.8055 108.714C61.2534 108.847 60.6874 108.913 60.1195 108.912C58.9594 108.912 57.9538 108.688 57.1012 108.24ZM72.5892 108.543C72.1641 108.778 71.6024 108.895 70.9041 108.895C68.9287 108.895 67.941 107.794 67.941 105.59V98.914H66.0021V97.3715H67.941V94.6177L69.7481 94.0334V97.3715H72.5892V98.914H69.7481V105.27C69.7481 106.027 69.8766 106.567 70.1337 106.89C70.3902 107.213 70.816 107.375 71.4109 107.375C71.8663 107.375 72.2594 107.25 72.5901 107.001L72.5892 108.543ZM80.8862 99.1999C80.5704 98.9577 80.115 98.8366 79.52 98.8366C78.7482 98.8366 78.1019 99.1999 77.5811 99.9267C77.067 100.654 76.8099 101.646 76.8099 102.901V108.652H75.0037V97.3715H76.8099V99.696H76.8544C77.1121 98.9028 77.5048 98.2859 78.0327 97.8453C78.5611 97.397 79.1525 97.1729 79.8068 97.1729C80.2759 97.1729 80.6357 97.2245 80.8862 97.3278V99.1999ZM90.9245 108.649H89.1174V106.886H89.0729C88.2879 108.238 87.1319 108.914 85.6048 108.914C84.4808 108.914 83.5991 108.617 82.9596 108.022C82.3285 107.427 82.0129 106.637 82.0129 105.653C82.0129 103.545 83.2538 102.319 85.7357 101.974L89.1183 101.5C89.1183 99.5829 88.3434 98.6246 86.7938 98.6246C85.4353 98.6246 84.2089 99.0871 83.1146 100.012V98.1615C84.2231 97.4567 85.5012 97.1043 86.9487 97.1043C89.5998 97.1043 90.9254 98.507 90.9254 101.312L90.9245 108.649ZM89.1165 102.943L86.3965 103.317C85.5594 103.435 84.9276 103.644 84.5013 103.945C84.0756 104.239 83.8627 104.764 83.8627 105.521C83.8627 106.072 84.0575 106.524 84.447 106.876C84.8436 107.221 85.3688 107.393 86.0225 107.393C86.919 107.393 87.6571 107.081 88.2366 106.458C88.8244 105.826 89.1183 105.029 89.1183 104.066L89.1165 102.943ZM96.1792 107.02H96.1346V113.839H94.3284V97.3688H96.1355V99.3513H96.1792C97.068 97.8533 98.368 97.1043 100.079 97.1043C101.534 97.1043 102.669 97.6111 103.483 98.6246C104.298 99.6304 104.706 100.982 104.706 102.679C104.706 104.566 104.247 106.079 103.329 107.217C102.411 108.348 101.155 108.914 99.5618 108.914C98.1 108.914 96.9724 108.283 96.1792 107.02ZM96.1346 102.469V104.046C96.1346 104.978 96.436 105.771 97.0386 106.425C97.6484 107.071 98.4194 107.395 99.3516 107.395C100.446 107.395 101.302 106.976 101.919 106.139C102.543 105.302 102.854 104.137 102.854 102.646C102.854 101.39 102.565 100.406 101.985 99.6933C101.405 98.9808 100.619 98.6246 99.6277 98.6246C98.5767 98.6246 97.7321 98.9918 97.0938 99.7263C96.4544 100.454 96.1346 101.368 96.1346 102.469Z" fill="#7952B3"/>
<defs>
<filter id="filter0_d_972_1000" x="40.6181" y="23.1687" width="37.0841" height="48.4591" filterUnits="userSpaceOnUse" color-interpolation-filters="sRGB">
<feFlood flood-opacity="0" result="BackgroundImageFix"/>
<feColorMatrix in="SourceAlpha" type="matrix" values="0 0 0 0 0 0 0 0 0 0 0 0 0 0 0 0 0 0 127 0" result="hardAlpha"/>
<feOffset dy="0.122875"/>
<feGaussianBlur stdDeviation="0.245625"/>
<feColorMatrix type="matrix" values="0 0 0 0 0 0 0 0 0 0 0 0 0 0 0 0 0 0 0.15 0"/>
<feBlend mode="normal" in2="BackgroundImageFix" result="effect1_dropShadow_972_1000"/>
<feBlend mode="normal" in="SourceGraphic" in2="effect1_dropShadow_972_1000" result="shape"/>
</filter>
<linearGradient id="paint0_linear_972_1000" x1="18.4904" y1="4.689" x2="116.377" y2="82.3925" gradientUnits="userSpaceOnUse">
<stop stop-color="#9013FE"/>
<stop offset="1" stop-color="#6610F2"/>
</linearGradient>
<linearGradient id="paint1_linear_972_1000" x1="44.5258" y1="26.6614" x2="66.4049" y2="63.6651" gradientUnits="userSpaceOnUse">
<stop stop-color="white"/>
<stop offset="1" stop-color="#F1E5FC"/>
</linearGradient>
</defs>
</svg>
