<svg width="114" height="115" viewBox="0 0 114 115" fill="none" xmlns="http://www.w3.org/2000/svg">
<path d="M20.1914 42.3594H108.96V107.972H20.1914V42.3594Z" fill="white"/>
<path d="M1.33594 57.4199V113.084H112.664V1.75586H1.33594V57.4199ZM91.0486 52.9668C93.715 53.5856 96.1385 54.9802 98.0133 56.9746C99.0453 58.0492 99.9425 59.2455 100.685 60.5371C100.685 60.6796 95.8758 63.9304 92.9456 65.7473C92.8388 65.8185 92.4113 65.3554 91.9392 64.6518C91.4043 63.7288 90.6443 62.9564 89.7301 62.4066C88.8159 61.8568 87.7773 61.5477 86.7113 61.5079C83.3358 61.2763 81.1627 63.0487 81.1805 65.961C81.1534 66.686 81.3194 67.4052 81.6614 68.0451C82.4006 69.5859 83.7811 70.5032 88.1095 72.3735C96.0806 75.8024 99.4917 78.0646 101.611 81.2798C103.98 84.8423 104.506 90.5957 102.903 94.8529C101.122 99.4841 96.7575 102.628 90.5855 103.67C87.7665 103.993 84.9183 103.963 82.1067 103.581C77.7976 102.871 73.8282 100.802 70.778 97.6762C69.7538 96.5451 67.7588 93.5971 67.8834 93.3834C68.2079 93.1411 68.5503 92.9237 68.9077 92.7332L73.0312 90.4532L76.2286 88.6007L76.8966 89.5893C78.0242 91.2016 79.4588 92.5756 81.1181 93.6327C84.6806 95.503 89.5434 95.2448 91.9481 93.0805C92.7555 92.2875 93.2592 91.2364 93.3715 90.1103C93.4838 88.9841 93.1975 87.8543 92.5627 86.9174C91.672 85.6794 89.8908 84.6374 84.9122 82.4643C79.1677 79.9884 76.6917 78.4565 74.4295 76.0162C73.0178 74.4055 71.9752 72.5057 71.3747 70.4498C70.9272 68.1007 70.861 65.6949 71.1787 63.3248C72.3633 57.7762 76.5225 53.902 82.5966 52.753C85.4096 52.4055 88.2588 52.4836 91.0486 52.9846V52.9668ZM64.9177 57.6337V62.1937H50.4628V103.367H40.2117V62.1848H25.7212V57.7316C25.6758 56.196 25.7115 54.659 25.8281 53.1271C25.8994 53.047 34.7344 53.047 45.4219 53.047H64.8642L64.9177 57.6337Z" fill="#007ACC"/>
</svg>
