<svg width="115" height="115" viewBox="0 0 115 115" fill="none" xmlns="http://www.w3.org/2000/svg">
<path d="M46.9536 60.8989C46.9536 60.8989 44.0288 62.6009 49.0386 63.1762C55.1073 63.8691 58.2093 63.7694 64.8962 62.5056C64.8962 62.5056 66.6587 63.6073 69.1133 64.5621C54.1187 70.9861 35.1769 64.1898 46.9536 60.8989ZM45.1198 52.5137C45.1198 52.5137 41.8388 54.9442 46.8521 55.4625C53.3359 56.1314 58.4543 56.1866 67.3178 54.4802C67.3178 54.4802 68.5406 55.7235 70.467 56.4013C52.341 61.704 32.1515 56.819 45.1198 52.5137Z" fill="#0074BD"/>
<path d="M60.5674 38.2905C64.2644 42.5459 59.5984 46.372 59.5984 46.372C59.5984 46.372 68.9794 41.5297 64.6714 35.4636C60.6467 29.809 57.5624 27.0009 74.2643 17.3145C74.2643 17.3145 48.0461 23.8605 60.5674 38.2905Z" fill="#EA2D2E"/>
<path d="M80.4001 67.1022C80.4001 67.1022 82.5661 68.8879 78.015 70.2683C69.3617 72.8895 41.9946 73.6803 34.3931 70.3726C31.6625 69.1836 36.7862 67.5341 38.3974 67.1877C40.078 66.8234 41.0381 66.8902 41.0381 66.8902C37.9993 64.75 21.3953 71.0931 32.6047 72.9126C63.1745 77.8672 88.3285 70.6807 80.4001 67.1022ZM48.3643 43.8266C48.3643 43.8266 34.4448 47.1335 43.4356 48.3358C47.2333 48.8435 54.7982 48.7268 61.8502 48.1354C67.6116 47.6518 73.3936 46.6178 73.3936 46.6178C73.3936 46.6178 71.3638 47.4888 69.8934 48.4917C55.7556 52.21 28.45 50.4778 36.3115 46.6766C42.9583 43.4605 48.3643 43.8266 48.3643 43.8266ZM73.3357 57.7827C87.7059 50.3175 81.061 43.1426 76.4235 44.1089C75.2897 44.3458 74.7803 44.5507 74.7803 44.5507C74.7803 44.5507 75.2033 43.888 76.0076 43.6039C85.1828 40.3799 92.2374 53.1167 73.0489 58.1612C73.0489 58.1612 73.2689 57.9617 73.3357 57.7827Z" fill="#0074BD"/>
<path d="M64.674 1.66992C64.674 1.66992 72.6317 9.63122 57.1251 21.8711C44.6901 31.692 54.2893 37.2905 57.1197 43.6896C49.8611 37.1399 44.537 31.374 48.1084 26.0089C53.3533 18.134 67.8838 14.3141 64.674 1.66992Z" fill="#EA2D2E"/>
<path d="M49.7774 78.0183C63.5679 78.9 84.7514 77.5276 85.2528 71.002C85.2528 71.002 84.2891 73.4752 73.8537 75.4381C62.0814 77.654 47.5598 77.3966 38.9492 75.9752C38.9492 75.9752 40.7127 77.4358 49.7774 78.0183Z" fill="#0074BD"/>
<path d="M84.6131 89.7231H84.1927V89.488H85.3238V89.7231H84.9052V90.8961H84.6122L84.6131 89.7231ZM86.8709 89.7819H86.8655L86.4487 90.8961H86.2563L85.8422 89.7819H85.8377V90.8961H85.5599V89.488H85.9669L86.3507 90.4846L86.7355 89.488H87.1398V90.8961H86.8709V89.7819ZM47.5141 102.954C46.2138 104.082 44.8387 104.716 43.6034 104.716C41.8453 104.716 40.8915 103.66 40.8915 101.968C40.8915 100.138 41.9121 98.7977 46.0019 98.7977H47.5132L47.5141 102.954ZM51.1042 107.005V94.4675C51.1042 91.2621 49.2758 89.1478 44.8725 89.1478C42.3022 89.1478 40.0489 89.7837 38.2169 90.5924L38.7442 92.8127C40.187 92.2828 42.0528 91.7912 43.8839 91.7912C46.4222 91.7912 47.5132 92.8127 47.5132 94.9271V96.5115H46.245C40.081 96.5115 37.2996 98.9028 37.2996 102.499C37.2996 105.598 39.1325 107.358 42.5836 107.358C44.8013 107.358 46.4587 106.443 48.0058 105.102L48.2872 107.006L51.1042 107.005ZM63.0849 107.005H58.6078L53.2186 89.4693H57.1293L60.4745 100.245L61.2182 103.482C62.9068 98.7995 64.1038 94.0453 64.7023 89.4702H68.5062C67.4882 95.2423 65.6535 101.581 63.0849 107.005ZM80.2633 102.954C78.9585 104.082 77.5825 104.716 76.3517 104.716C74.5918 104.716 73.6388 103.66 73.6388 101.968C73.6388 100.138 74.6622 98.7977 78.7475 98.7977H80.2624L80.2633 102.954ZM83.8552 107.005V94.4675C83.8552 91.2621 82.0214 89.1478 77.6217 89.1478C75.0487 89.1478 72.7963 89.7837 70.9643 90.5924L71.4924 92.8127C72.9352 92.2828 74.8038 91.7912 76.6349 91.7912C79.1696 91.7912 80.2633 92.8127 80.2633 94.9271V96.5115H78.9951C72.8293 96.5115 70.0487 98.9028 70.0487 102.499C70.0487 105.598 71.8799 107.358 75.3301 107.358C77.5487 107.358 79.2035 106.443 80.7549 105.102L81.0381 107.006L83.8552 107.005ZM33.363 109.985C32.3415 111.48 30.6867 112.664 28.8769 113.331L27.1055 111.242C28.4833 110.535 29.6633 109.394 30.2129 108.331C30.6867 107.384 30.8835 106.167 30.8835 103.254V83.2305H34.6989V102.978C34.6989 106.875 34.389 108.45 33.363 109.985Z" fill="#EA2D2E"/>
</svg>
