<svg width="115" height="115" viewBox="0 0 115 115" fill="none" xmlns="http://www.w3.org/2000/svg">
<path d="M57.3219 51.0891C61.8963 51.0891 65.6047 47.3807 65.6047 42.8062C65.6047 38.2318 61.8963 34.5234 57.3219 34.5234C52.7474 34.5234 49.0391 38.2318 49.0391 42.8062C49.0391 47.3807 52.7474 51.0891 57.3219 51.0891Z" fill="#61DAFB"/>
<path d="M57.3211 73.2649C63.8227 79.5883 70.2352 83.3289 75.4008 83.3289C77.093 83.3289 78.6961 82.9727 80.0321 82.1711C84.6633 79.4992 86.3555 72.8196 84.7524 63.2899C84.4852 61.5977 84.1289 59.9055 83.6836 58.1242C85.4649 57.5899 87.068 57.0555 88.6711 56.5211C97.6664 53.0477 102.654 48.2383 102.654 42.9836C102.654 37.6399 97.6664 32.8305 88.6711 29.4461C87.068 28.8227 85.4649 28.2883 83.6836 27.843C84.1289 26.0617 84.4852 24.3695 84.7524 22.6773C86.2664 12.9695 84.5742 6.20078 79.943 3.52891C78.6071 2.72734 77.0039 2.37109 75.3117 2.37109C70.2352 2.37109 63.7336 6.11172 57.232 12.4352C50.8195 6.11172 44.407 2.37109 39.2414 2.37109C37.5492 2.37109 35.9461 2.72734 34.6102 3.52891C29.9789 6.20078 28.2867 12.8805 29.8898 22.4102C30.157 24.1023 30.5133 25.7945 30.9586 27.5758C29.1773 28.1102 27.5742 28.6445 25.9711 29.1789C16.9758 32.6524 11.9883 37.4617 11.9883 42.7164C11.9883 48.0602 16.9758 52.8695 25.9711 56.2539C27.5742 56.8774 29.1773 57.4117 30.9586 57.857C30.5133 59.6383 30.157 61.3305 29.8898 63.0227C28.3758 72.5524 30.068 79.3211 34.6102 81.9039C35.9461 82.7055 37.5492 83.0617 39.2414 83.0617C44.407 83.2399 50.8195 79.4992 57.3211 73.2649ZM52.3336 61.2414C53.9367 61.3305 55.6289 61.3305 57.3211 61.3305C59.0133 61.3305 60.7055 61.3305 62.3086 61.2414C60.7055 63.3789 59.0133 65.3383 57.3211 67.2086C55.6289 65.3383 53.9367 63.3789 52.3336 61.2414ZM41.2899 52.068C42.1805 53.582 42.982 55.007 43.9617 56.432C41.2008 56.0758 38.618 55.6305 36.1242 55.0961C36.9258 52.6914 37.8164 50.1977 38.8852 47.7039C39.5977 49.1289 40.3992 50.643 41.2899 52.068ZM36.1242 30.6039C38.618 30.0695 41.2008 29.6242 43.9617 29.268C43.0711 30.693 42.1805 32.118 41.2899 33.632C40.3992 35.1461 39.5977 36.5711 38.8852 38.0852C37.7273 35.5024 36.8367 33.0086 36.1242 30.6039ZM41.0227 42.8055C42.1805 40.4008 43.4274 37.9961 44.8524 35.5914C46.1883 33.2758 47.7024 30.9602 49.2164 28.6445C51.8883 28.4664 54.5602 28.3773 57.3211 28.3773C60.1711 28.3773 62.843 28.4664 65.4258 28.6445C67.0289 30.9602 68.4539 33.2758 69.7899 35.5914C71.2149 37.9961 72.4617 40.4008 73.6196 42.8055C72.4617 45.2102 71.2149 47.6149 69.7899 50.0195C68.4539 52.3352 66.9399 54.6508 65.4258 56.9664C62.7539 57.1445 60.082 57.2336 57.3211 57.2336C54.4711 57.2336 51.7992 57.1445 49.2164 56.9664C47.6133 54.6508 46.1883 52.3352 44.8524 50.0195C43.4274 47.6149 42.1805 45.2102 41.0227 42.8055ZM75.8461 37.9961L73.4414 33.543C72.5508 32.0289 71.7492 30.6039 70.7695 29.1789C73.5305 29.5352 76.1133 29.9805 78.6071 30.5149C77.8055 33.0086 76.9149 35.5024 75.8461 37.9961ZM75.8461 47.6149C76.9149 50.1086 77.8055 52.6024 78.6071 55.007C76.1133 55.5414 73.5305 55.9867 70.7695 56.343C71.6602 54.918 72.5508 53.493 73.4414 51.9789C74.243 50.643 75.0446 49.1289 75.8461 47.6149ZM77.8945 78.5196C77.182 78.9649 76.2914 79.143 75.3117 79.143C70.9477 79.143 65.5149 75.5805 60.1711 70.2367C62.7539 67.4758 65.2477 64.3586 67.7414 60.8852C71.9274 60.5289 75.9352 59.9055 79.6758 59.0149C80.1211 60.618 80.3883 62.2211 80.6555 63.8242C81.9024 71.3945 80.9227 76.8274 77.8945 78.5196ZM82.5258 31.5836C92.5008 34.4336 98.468 38.7977 98.468 42.8055C98.468 46.2789 94.3711 49.7524 87.1571 52.5133C85.7321 53.0477 84.1289 53.582 82.5258 54.0274C81.368 50.3758 79.943 46.6352 78.1617 42.8055C79.943 38.9758 81.4571 35.2352 82.5258 31.5836ZM75.4008 6.46797C76.3805 6.46797 77.182 6.6461 77.9836 7.09141C80.9227 8.7836 81.9914 14.1273 80.7446 21.7867C80.4774 23.3008 80.1211 24.9039 79.7649 26.5961C76.0242 25.7945 72.0164 25.1711 67.8305 24.7258C65.4258 21.2523 62.843 18.1352 60.2602 15.3742C65.6039 10.1195 71.0367 6.46797 75.4008 6.46797ZM62.3086 24.3695C60.7055 24.2805 59.0133 24.2805 57.3211 24.2805C55.6289 24.2805 53.9367 24.2805 52.3336 24.3695C53.9367 22.232 55.6289 20.2727 57.3211 18.4023C59.0133 20.2727 60.7055 22.3211 62.3086 24.3695ZM36.7477 7.09141C37.4602 6.6461 38.3508 6.46797 39.3305 6.46797C43.6945 6.46797 49.1274 10.0305 54.4711 15.3742C51.8883 18.1352 49.3945 21.2523 46.9008 24.7258C42.7148 25.082 38.707 25.7055 34.9664 26.5961C34.5211 24.993 34.2539 23.3898 33.9867 21.7867C32.7398 14.2164 33.7195 8.87266 36.7477 7.09141ZM32.1164 54.0274C22.1414 51.1774 16.1742 46.8133 16.1742 42.8055C16.1742 39.332 20.2711 35.8586 27.4852 33.0977C28.9102 32.5633 30.5133 32.0289 32.1164 31.5836C33.2742 35.2352 34.6992 38.9758 36.4805 42.8055C34.6992 46.6352 33.1852 50.4649 32.1164 54.0274ZM33.9867 63.8242C34.2539 62.3102 34.6102 60.707 34.9664 59.0149C38.707 59.8164 42.7148 60.4399 46.9008 60.8852C49.3055 64.3586 51.8883 67.4758 54.4711 70.2367C49.1274 75.4914 43.6945 79.143 39.3305 79.143C38.3508 79.143 37.5492 78.9649 36.7477 78.5196C33.7195 76.8274 32.7398 71.3945 33.9867 63.8242ZM30.2461 100.518C32.2055 98.1133 32.2945 95.4414 31.2258 92.7696C30.157 90.0977 27.9305 88.8508 25.1695 88.7617C21.8742 88.6727 18.4898 88.7617 15.1945 88.7617H14.5711V111.829H17.243V103.101H21.4289C21.9633 103.101 22.4086 103.279 22.6758 103.724L28.0195 112.007C28.1086 112.185 28.3758 112.452 28.5539 112.452H32.0273C29.8898 109.157 27.8414 106.04 25.7039 102.834C27.5742 102.566 29.1773 101.943 30.2461 100.518ZM17.243 100.34V91.5227H18.2227C20.2711 91.5227 22.4086 91.4336 24.457 91.6117C26.8617 91.7008 28.5539 93.5711 28.5539 95.9758C28.5539 98.3805 26.5945 100.251 24.1898 100.34C22.0523 100.429 19.9148 100.34 17.243 100.34ZM51.7102 101.498C50.2852 95.2633 44.5852 93.6602 40.2211 95.6196C36.8367 97.1336 35.3227 100.073 35.2336 103.724C35.1445 106.485 35.9461 108.979 38.0836 110.849C40.4883 112.987 43.4273 113.254 46.4555 112.72C48.1477 112.363 49.6617 111.562 50.8195 110.315C50.3742 109.691 49.9289 109.068 49.4836 108.534C46.9899 110.671 44.2289 111.384 41.2008 109.959C39.2414 108.979 38.2617 106.574 38.0836 104.793H51.8883V103.635C51.9774 102.834 51.8883 102.121 51.7102 101.498ZM38.2617 102.923C37.9945 100.251 40.6664 97.4008 43.6055 97.4008C46.9899 97.3117 49.1274 99.3602 49.2164 102.923H38.2617ZM65.6039 95.1742C64.268 94.9071 62.843 94.818 61.507 94.9071C59.3695 95.0852 57.4992 96.0649 55.9852 97.668C56.4305 98.2914 56.7867 98.9149 57.3211 99.6274C57.4992 99.4492 57.6774 99.2711 57.8555 99.1821C59.2805 97.8461 60.9727 97.1336 63.0211 97.3117C64.6242 97.4008 66.1383 97.9352 66.5836 99.5383C66.9399 100.785 66.8508 102.121 66.9399 103.457C66.6727 103.457 66.5836 103.368 66.4945 103.279C64.357 101.498 61.9524 101.141 59.3695 101.765C56.9649 102.388 55.4508 104.259 55.2727 106.663C55.0945 109.424 56.3414 111.473 58.7461 112.452C60.2602 113.076 61.9524 113.076 63.5555 112.72C64.8024 112.452 65.3367 111.74 67.118 110.76V111.918H69.6117C69.6117 108.355 69.7008 103.991 69.6117 99.8946C69.6117 97.3117 68.0977 95.7086 65.6039 95.1742ZM66.8508 106.396C66.7617 106.663 66.8508 106.931 66.8508 107.198C66.8508 109.068 66.4055 109.691 64.6242 110.404C63.3774 110.849 62.0414 111.027 60.7055 110.582C59.1914 110.137 58.1227 108.801 58.1227 107.287C58.0336 105.773 59.0133 104.259 60.5274 103.813C62.5758 103.101 64.4461 103.546 66.1383 104.793C66.6727 105.238 67.0289 105.684 66.8508 106.396ZM80.7446 97.5789C83.0602 96.8664 85.1977 97.3117 86.8008 99.2711L87.068 99.4492C87.6914 98.9149 88.2258 98.3805 88.9383 97.7571C88.6711 97.4899 88.5821 97.3117 88.4039 97.0446C85.8211 94.2836 80.7446 93.9274 77.6274 96.1539C73.2633 99.3602 73.3524 105.595 75.4899 108.89C77.5383 112.007 80.4774 113.076 83.9508 112.631C85.9992 112.363 87.6914 111.384 89.0274 109.691C88.4039 109.157 87.7805 108.623 87.1571 107.999C86.9789 108.177 86.8899 108.266 86.8008 108.445C84.3961 111.116 80.3883 110.849 78.2508 107.999C77.0039 106.307 76.7367 104.348 77.093 102.388C77.2711 100.162 78.4289 98.3805 80.7446 97.5789ZM99.2696 109.691C99.0914 109.78 99.0024 109.87 99.0024 109.87C98.2899 110.404 97.5774 110.493 96.7758 110.226C95.9742 109.87 95.8852 109.157 95.7961 108.445V98.2914C95.7961 98.1133 95.7961 98.4696 95.8852 97.5789H99.2696V94.9071H95.7071V90.4539H93.0352V95.2633H90.7196C90.5414 95.2633 90.2742 95.4414 90.2742 95.6196C90.1852 96.243 90.2742 96.6883 90.2742 97.5789H93.1242V108.979C93.1242 110.404 93.4805 111.651 94.7274 112.363C96.0633 113.165 98.6461 112.987 99.8039 112.007C99.9821 111.918 100.071 111.562 100.071 111.473C99.8039 110.938 99.5367 110.315 99.2696 109.691Z" fill="#61DAFB"/>
</svg>
