<svg width="115" height="115" viewBox="0 0 115 115" fill="none" xmlns="http://www.w3.org/2000/svg">
<g clip-path="url(#clip0_972_952)">
<path d="M58.2844 49.8402C60.7781 52.1559 62.025 55.273 62.025 59.2809C62.025 63.2887 60.7781 66.4949 58.3734 68.8996C55.9688 71.2152 52.2281 72.4621 47.3297 72.4621H38.6016V46.5449H47.5969C52.2281 46.5449 55.7906 47.6137 58.2844 49.8402ZM54.0094 65.248C55.4344 63.9121 56.1469 61.9527 56.1469 59.3699C56.1469 56.7871 55.4344 54.8277 54.0094 53.4027C52.5844 52.0668 50.3578 51.2652 47.4188 51.2652H44.0344V67.2965H47.775C50.5359 67.2965 52.5844 66.584 54.0094 65.248ZM82.5985 72.4621H77.4328V69.9684C75.9188 71.7496 74.2266 72.6402 72.0891 72.6402C69.9516 72.6402 68.1703 72.0168 66.7453 70.7699C65.3203 69.523 64.6078 67.9199 64.6078 65.8715C64.6078 63.823 65.3203 62.309 66.8344 61.3293C68.3485 60.3496 70.3969 59.8152 72.9797 59.8152H77.0766V59.6371C77.0766 57.4996 76.0078 56.4309 73.6922 56.4309C72.7125 56.4309 71.7328 56.609 70.6641 56.9652C69.5953 57.3215 68.7047 57.8559 67.9031 58.3902L65.4094 54.7387C68.0813 52.7793 71.0203 51.8887 74.4047 51.8887C76.8094 51.8887 78.7688 52.5121 80.2828 53.759C81.7969 55.0059 82.5094 56.8762 82.5094 59.548V72.4621H82.5985ZM76.9875 64.8027V64.0012H73.5141C71.2875 64.0012 70.1297 64.6246 70.1297 65.9605C70.1297 66.673 70.3969 67.2074 70.9313 67.5637C71.4656 67.9199 72.1781 68.098 73.2469 68.098C74.2266 68.098 75.1172 67.8309 75.8297 67.2074C76.6313 66.584 76.9875 65.7824 76.9875 64.8027ZM97.2938 57.3215C95.6016 57.3215 94.2656 57.8559 93.4641 59.1027C92.6625 60.2605 92.1281 61.8637 92.1281 63.823V72.5512H86.6063V52.5121H92.1281V55.0949C92.8406 54.2934 93.9094 53.5809 94.9781 53.0465C96.0469 52.5121 97.2938 52.1559 98.4516 52.1559V57.4105L97.2938 57.3215ZM107.358 56.5199V65.3371C107.358 66.1387 107.536 66.673 107.981 67.1184C108.338 67.5637 108.872 67.7418 109.406 67.7418C110.475 67.7418 111.366 67.2965 112.078 66.3168L114.127 70.2355C112.434 71.8387 110.564 72.6402 108.694 72.6402C106.734 72.6402 105.131 72.0168 103.795 70.7699C102.459 69.523 101.836 67.7418 101.836 65.6043V46.5449H107.358V52.1559H113.236L110.208 56.609L107.358 56.5199Z" fill="#231F20"/>
<path d="M8.40859 50.643L6.44922 48.6836V63.2898C6.44922 63.557 6.53828 63.9133 6.62734 64.2695L22.0351 69.7023L25.8648 68.0102L8.40859 50.643Z" fill="#00C4B3"/>
<path d="M25.8625 68.0981L22.0328 69.7902L6.625 64.3574C6.89219 65.5152 7.51562 66.7621 8.22812 67.4746L13.2156 72.4621H24.3484L25.8625 68.0981Z" fill="#22D3C5"/>
<path d="M0.570982 57.6789C0.0366072 58.2133 0.303795 59.282 1.10536 60.1727L4.5788 63.6461L6.7163 64.4477C6.62723 64.0914 6.53817 63.7352 6.53817 63.468V62.8445L6.44911 48.6836" fill="#0075C9"/>
<path d="M25.8648 68.0992L27.557 64.2695L22.1242 48.8617C21.768 48.7727 21.4117 48.6836 21.1445 48.6836H6.44922" fill="#0075C9"/>
<path d="M25.8656 68.0988L30.0516 66.7629V55.2738L25.2422 50.4645C24.5297 49.752 23.2828 49.1285 22.125 48.8613L27.5578 64.2691" fill="#00A8E1"/>
<path d="M21.4117 46.7233L17.8492 43.2499C17.0477 42.4483 15.9789 42.1811 15.4445 42.7155L6.44922 48.6827H21.1445C21.4117 48.6827 21.768 48.7718 22.1242 48.8608L21.4117 46.7233Z" fill="#00C4B3"/>
</g>
<defs>
<clipPath id="clip0_972_952">
<rect width="114" height="114" fill="white" transform="translate(0.125 0.5)"/>
</clipPath>
</defs>
</svg>
