<svg width="115" height="115" viewBox="0 0 115 115" fill="none" xmlns="http://www.w3.org/2000/svg">
<g clip-path="url(#clip0_972_913)">
<path d="M0.96025 88.511C0.420531 88.2438 0.0625 87.6141 0.0625 86.8972C0.0625 85.8186 0.869406 85.0117 1.94795 85.0117C2.30688 85.0117 2.66491 85.1017 2.93655 85.2825C4.90839 86.6291 7.06549 87.2552 8.94827 87.2552C11.0145 87.2552 12.1795 86.3575 12.1795 85.0108V84.9218C12.1795 83.3071 9.93508 82.7674 7.51436 82.0504C4.45952 81.1535 1.0502 79.8942 1.0502 75.9452V75.8543C1.0502 71.9062 4.28317 69.5719 8.41211 69.5719C10.6565 69.5719 12.9009 70.2015 14.9627 71.2801C15.5923 71.6381 16.1294 72.2642 16.1294 73.0747C16.1294 74.1497 15.2307 74.9575 14.1558 74.9575C13.7977 74.9575 13.5261 74.8702 13.1672 74.6894C11.4634 73.7916 9.75874 73.2519 8.32216 73.2519C6.43581 73.2519 5.44811 74.1497 5.44811 75.3182V75.4055C5.44811 76.9329 7.69249 77.5625 10.1168 78.3703C13.168 79.2672 16.5774 80.7038 16.5774 84.3856V84.472C16.5774 88.8735 13.168 91.027 8.86099 91.027C6.25502 91.027 3.38453 90.2192 0.96025 88.511ZM35.1585 80.3458C35.1585 76.3032 32.4661 73.7017 29.2376 73.7017C26.0046 73.7017 23.2223 76.394 23.2223 80.3458V80.433C23.2223 84.3856 26.0055 87.0771 29.2376 87.0771C32.4661 86.8972 35.1585 84.3856 35.1585 80.3458ZM18.6436 71.9961C18.6436 70.6504 19.6322 69.5719 20.9779 69.5719C21.2965 69.5707 21.6122 69.6326 21.9068 69.754C22.2014 69.8755 22.469 70.054 22.6942 70.2794C22.9194 70.5048 23.0977 70.7725 23.219 71.0672C23.3402 71.3618 23.4019 71.6775 23.4004 71.9961V73.4336C24.927 71.2801 27.0805 69.5719 30.4025 69.5719C35.2493 69.5719 40.0088 73.4336 40.0088 80.2558V80.3458C40.0088 87.1653 35.3393 91.027 30.4025 91.027C26.9897 91.027 24.8361 89.3215 23.3995 87.436V94.7071C23.3995 96.0537 22.3246 97.0414 20.9779 97.0414C20.671 97.0433 20.3667 96.9842 20.0827 96.8676C19.7988 96.751 19.5408 96.5792 19.3237 96.3622C19.1067 96.1451 18.9349 95.8871 18.8183 95.6032C18.7017 95.3192 18.6426 95.0149 18.6445 94.708V71.997M41.9807 71.9062C41.9807 70.5596 42.9693 69.4846 44.315 69.4846C44.6336 69.4831 44.9494 69.5446 45.244 69.6657C45.5387 69.7868 45.8065 69.9651 46.032 70.1902C46.2575 70.4153 46.4361 70.6829 46.5577 70.9774C46.6792 71.2719 46.7412 71.5876 46.7402 71.9062V73.0747C47.0073 71.2801 49.8823 69.5719 51.945 69.5719C53.4724 69.5719 54.2793 70.5605 54.2793 71.9053C54.2793 73.1611 53.4724 73.9724 52.3939 74.1497C48.9845 74.7793 46.6493 77.6498 46.6493 81.7797V88.6018C46.6493 89.8576 45.5717 90.9362 44.225 90.9362C43.9181 90.9382 43.6138 90.8792 43.3299 90.7625C43.046 90.6459 42.7881 90.474 42.5712 90.2567C42.3543 90.0395 42.1828 89.7814 42.0666 89.4973C41.9503 89.2132 41.8918 88.9088 41.8943 88.6018V71.9062M56.4328 71.9062C56.4318 71.5876 56.4938 71.2719 56.6153 70.9774C56.7369 70.6829 56.9155 70.4153 57.141 70.1902C57.3665 69.9651 57.6343 69.7868 57.9289 69.6657C58.2236 69.5446 58.5394 69.4831 58.858 69.4846C59.1765 69.4832 59.4922 69.5448 59.7868 69.666C60.0814 69.7872 60.3491 69.9654 60.5744 70.1905C60.7998 70.4157 60.9784 70.6832 61.0999 70.9776C61.2213 71.2721 61.2833 71.5877 61.2823 71.9062V88.6018C61.2823 89.9485 60.2046 90.9362 58.858 90.9362C57.5114 90.9362 56.4328 89.9476 56.4328 88.6018V71.9062ZM63.3459 71.9961C63.3445 71.6774 63.4062 71.3615 63.5275 71.0667C63.6489 70.772 63.8274 70.5042 64.0528 70.2788C64.2782 70.0534 64.546 69.8748 64.8407 69.7535C65.1355 69.6322 65.4514 69.5704 65.7701 69.5719C67.1168 69.5719 68.2817 70.6495 68.2817 71.9961V72.9847C69.6283 71.0993 71.6955 69.5719 75.0148 69.5719C79.8643 69.5719 82.6439 72.7131 82.6439 77.4717V88.6018C82.6439 89.9485 81.5689 90.9362 80.2214 90.9362C78.8766 90.9362 77.7072 89.9476 77.7072 88.6018V78.9092C77.7072 75.6771 76.0025 73.8825 73.1294 73.8825C70.258 73.8825 68.2826 75.7679 68.2826 78.9965V88.6018C68.2826 89.9485 67.2076 90.9362 65.771 90.9362C64.4244 90.9362 63.3459 89.9476 63.3459 88.6018V71.9961ZM95.0325 86.9871C91.7105 86.9871 88.93 84.472 88.93 80.3458V80.2558C88.93 76.2168 91.7096 73.6108 95.0325 73.6108C98.3546 73.6108 101.225 76.3032 101.225 80.2549V80.3458C101.225 84.2948 98.3546 86.9871 95.0325 86.9871ZM103.559 69.6618C103.241 69.6608 102.925 69.7228 102.631 69.8443C102.336 69.9659 102.069 70.1445 101.843 70.37C101.618 70.5954 101.44 70.8632 101.319 71.1579C101.198 71.4526 101.136 71.7684 101.138 72.087V73.5236C99.5204 71.3665 97.3669 69.6618 93.8667 69.6618C88.84 69.6618 83.9897 73.5236 83.9897 80.433V80.5239C83.9897 87.3461 88.84 91.2942 93.8667 91.2942C97.3669 91.2942 99.6112 89.5895 101.138 87.705C100.867 91.475 98.5327 93.3605 94.4029 93.3605C91.9812 93.3605 89.8277 92.7317 87.8514 91.7431C87.5842 91.6531 87.3126 91.5658 86.9546 91.5658C85.7878 91.5658 84.8883 92.4636 84.8883 93.5386C84.8883 94.4363 85.4271 95.066 86.2376 95.424C88.84 96.6798 91.4424 97.3095 94.4937 97.3095C98.3546 97.3095 101.316 96.4117 103.291 94.5263C105.087 92.8216 106.074 90.2192 106.074 86.7155V71.997C105.985 70.6513 104.906 69.6636 103.559 69.6636M61.2823 63.8282C61.2823 65.084 60.2046 66.1634 58.858 66.1634C57.5114 66.1634 56.4328 65.0849 56.4328 63.8282C56.4328 62.5716 57.5105 61.4948 58.858 61.4948C60.2037 61.4948 61.2823 62.5724 61.2823 63.8282ZM73.849 48.2984C68.5534 55.3014 57.1533 52.9671 49.7914 53.2351C49.7914 53.2351 48.5357 53.326 47.189 53.5068C47.189 53.5068 47.7288 53.326 48.264 53.0579C53.3816 51.3532 55.8067 50.9916 58.948 49.3769C64.7824 46.4165 70.6169 40.0432 71.7819 33.3982C69.5375 39.7716 62.8062 45.2471 56.6145 47.4915C52.393 49.0189 44.7639 50.4555 44.7639 50.4555L44.4967 50.2747C39.2883 47.8495 39.1111 36.8111 48.6256 33.3074C52.7554 31.7835 56.7036 32.5905 61.1923 31.6027C65.9483 30.5278 71.5147 27.0249 73.7591 22.4462C76.2733 29.8981 79.3264 41.299 73.849 48.2984ZM73.939 20.2927C73.3216 21.6983 72.5382 23.025 71.6055 24.2444C67.6565 20.2927 62.18 17.8711 56.0748 17.8711C44.1378 17.8711 34.4415 27.3856 34.4415 38.9638C34.4415 45.0663 37.1348 50.5419 41.3546 54.4036L41.8034 54.8525C40.9965 54.2228 40.9057 53.0579 41.5327 52.3374C42.1623 51.5305 43.3273 51.4396 44.1378 52.0702C44.9456 52.699 45.0355 53.8648 44.4058 54.5818C43.7762 55.3922 42.6103 55.4786 41.8034 54.8525L42.1623 55.1206C46.0954 58.3142 51.0075 60.0573 56.0739 60.0573C67.4748 60.0573 76.8094 51.3532 77.6199 40.4912C78.3369 35.1929 76.7222 28.3707 73.939 20.2918M111.728 71.1002H110.921V72.1778H111.728C112 72.1778 112.267 71.997 112.267 71.639C112.267 71.281 112 71.1002 111.728 71.1002ZM112.177 73.7925L111.37 72.5368H110.83V73.7925H110.382V70.7413H111.637C112.177 70.7413 112.626 71.1002 112.626 71.639C112.634 71.8642 112.554 72.0838 112.404 72.2513C112.253 72.4188 112.043 72.5212 111.818 72.5368L112.626 73.7925H112.177ZM111.46 69.9343C110.204 69.9343 109.126 70.9185 109.126 72.1787C109.126 73.4345 110.204 74.4222 111.46 74.4222C112.716 74.4222 113.794 73.4336 113.794 72.1778C113.794 71.0093 112.717 69.9335 111.461 69.9335L111.46 69.9343ZM111.46 74.9575C109.933 74.9575 108.677 73.7925 108.677 72.2651C108.677 70.7421 109.933 69.5728 111.46 69.5728C112.984 69.5728 114.243 70.7413 114.243 72.2651C114.243 73.7017 112.984 74.9575 111.46 74.9575Z" fill="#5FB832"/>
</g>
<defs>
<clipPath id="clip0_972_913">
<rect width="114" height="114" fill="white" transform="translate(0.0625 0.5)"/>
</clipPath>
</defs>
</svg>
