<svg width="271" height="115" viewBox="0 0 271 115" fill="none" xmlns="http://www.w3.org/2000/svg">
<g clip-path="url(#clip0_972_990)">
<path d="M161.609 39.7818C155.701 39.7818 151.301 42.6824 151.301 49.6639C151.301 54.9237 154.201 58.5759 161.29 58.5759C167.299 58.5759 171.381 55.0346 171.381 49.4454C171.381 43.1121 167.729 39.7818 161.609 39.7818ZM149.797 89.0773C148.398 90.7926 147.005 92.6166 147.005 94.7667C147.005 99.0597 152.479 100.352 159.999 100.352C166.227 100.352 174.711 99.9147 174.711 94.1239C174.711 90.6817 170.629 90.4696 165.472 90.1466L149.797 89.0773ZM181.583 40.1058C183.512 42.5758 185.556 46.0138 185.556 50.9527C185.556 62.8721 176.213 69.8514 162.685 69.8514C159.245 69.8514 156.131 69.4228 154.201 68.8866L150.655 74.5761L161.178 75.22C179.758 76.4043 190.707 76.9426 190.707 91.219C190.707 103.571 179.864 110.547 161.178 110.547C141.742 110.547 134.332 105.607 134.332 97.1248C134.332 92.2925 136.48 89.7201 140.239 86.1703C136.694 84.6725 135.514 81.9892 135.514 79.0875C135.514 76.7231 136.694 74.5771 138.63 72.5346C140.562 70.4974 142.709 68.4549 145.287 66.0926C140.026 63.5149 136.05 57.931 136.05 49.9827C136.05 37.6358 144.213 29.1555 160.64 29.1555C165.259 29.1555 168.052 29.5798 170.522 30.229H191.464V39.3532L181.583 40.1058ZM210.356 20.5918C204.234 20.5918 200.691 17.0451 200.691 10.9218C200.691 4.807 204.233 1.47461 210.356 1.47461C216.584 1.47461 220.129 4.807 220.129 10.9218C220.129 17.0451 216.585 20.5918 210.356 20.5918ZM196.501 85.1253V76.646L201.979 75.8966C203.484 75.6802 203.697 75.3593 203.697 73.7453V42.1737C203.697 40.9957 203.376 40.2399 202.298 39.9211L196.501 37.8786L197.681 29.1829H219.912V73.7453C219.912 75.4659 220.016 75.6802 221.632 75.8976L227.108 76.6471V85.1253H196.501ZM269.574 80.9622C264.955 83.2158 258.19 85.2562 252.067 85.2562C239.288 85.2562 234.458 80.1072 234.458 67.9662V39.8346C234.458 39.1907 234.458 38.7611 233.595 38.7611H226.08V29.2009C235.532 28.1242 239.288 23.3996 240.469 11.6945H250.672V26.9473C250.672 27.6967 250.672 28.0208 251.532 28.0208H266.672V38.7589H250.672V64.4227C250.672 70.7581 252.177 73.226 257.973 73.226C260.984 73.226 264.095 72.4766 266.671 71.5097L269.574 80.9622Z" fill="#2F2707"/>
<path d="M110.46 52.7812L61.3602 3.68416C60.6877 3.01153 59.8894 2.47795 59.0107 2.11391C58.132 1.74987 57.1902 1.5625 56.2391 1.5625C55.288 1.5625 54.3462 1.74987 53.4676 2.11391C52.5889 2.47795 51.7905 3.01153 51.1181 3.68416L40.9225 13.8808L53.8562 26.8135C55.3766 26.2971 57.0111 26.2165 58.5749 26.5808C60.1387 26.9451 61.5693 27.7398 62.7049 28.875C63.846 30.0181 64.6426 31.4589 65.004 33.0331C65.3653 34.6072 65.2768 36.2513 64.7485 37.7776L77.2114 50.2426C80.2272 49.2039 83.7073 49.8763 86.115 52.2883C86.9157 53.0882 87.5508 54.0381 87.9841 55.0836C88.4174 56.1291 88.6405 57.2497 88.6405 58.3815C88.6405 59.5132 88.4174 60.6339 87.9841 61.6794C87.5508 62.7249 86.9157 63.6747 86.115 64.4747C84.7067 65.8843 82.8533 66.7624 80.8704 66.9593C78.8875 67.1563 76.8976 66.66 75.2395 65.5549C73.5814 64.4498 72.3574 62.8042 71.776 60.8982C71.1947 58.9923 71.2918 56.9438 72.0508 55.1013L60.427 43.4776L60.426 74.0676C61.2681 74.485 62.0376 75.0353 62.7049 75.6973C63.5054 76.4976 64.1403 77.4477 64.5735 78.4933C65.0067 79.539 65.2297 80.6597 65.2297 81.7916C65.2297 82.9234 65.0067 84.0442 64.5735 85.0898C64.1403 86.1355 63.5054 87.0856 62.7049 87.8858C59.3377 91.2531 53.8805 91.2531 50.5185 87.8858C49.5142 86.8822 48.7733 85.6459 48.3619 84.2869C47.9505 82.9279 47.8813 81.4883 48.1604 80.0961C48.4395 78.7039 49.0583 77.4023 49.9618 76.3069C50.8652 75.2115 52.0253 74.3563 53.339 73.8174V42.9424C52.2827 42.5099 51.3237 41.8704 50.5185 41.0614C47.9683 38.5143 47.355 34.7724 48.6618 31.6406L35.9128 18.8894L2.24693 52.5532C1.5742 53.2259 1.04056 54.0245 0.676474 54.9035C0.312391 55.7824 0.125 56.7245 0.125 57.6758C0.125 58.6272 0.312391 59.5692 0.676474 60.4482C1.04056 61.3271 1.5742 62.1257 2.24693 62.7984L51.3472 111.897C52.0196 112.569 52.8179 113.103 53.6966 113.467C54.5753 113.831 55.5171 114.018 56.4682 114.018C57.4193 114.018 58.3611 113.831 59.2398 113.467C60.1184 113.103 60.9168 112.569 61.5892 111.897L110.46 63.0275C111.819 61.6685 112.582 59.8257 112.582 57.9044C112.582 55.983 111.819 54.1402 110.46 52.7812Z" fill="#DE4C36"/>
</g>
<defs>
<clipPath id="clip0_972_990">
<rect width="270.222" height="114" fill="white" transform="translate(0.125 0.5)"/>
</clipPath>
</defs>
</svg>
