<svg width="168" height="115" viewBox="0 0 168 115" fill="none" xmlns="http://www.w3.org/2000/svg">
<g clip-path="url(#clip0_972_986)">
<path d="M50.0993 75.726L55.182 92.2175C56.3239 95.9619 56.8002 98.5757 56.6094 100.066C59.3892 92.6206 61.3316 84.5074 62.4365 75.726H68.5481C65.9199 90.0223 62.4545 100.411 58.1519 106.891C54.7998 111.886 51.1276 114.382 47.1288 114.382C46.0626 114.382 44.7482 114.06 43.1885 113.421V109.975C43.9505 110.086 44.8446 110.146 45.8729 110.146C47.738 110.146 49.2423 109.629 50.3858 108.597C51.7554 107.34 52.4411 105.927 52.4411 104.361C52.4411 103.291 51.9064 101.096 50.8418 97.7764L43.7601 75.726H50.0993ZM11.1999 65.5898L20.5093 93.9938H20.5668L29.9334 65.5898H37.5861C39.2618 79.6762 40.2516 92.5647 40.5554 104.247H34.1034C33.8761 93.3268 33.248 83.057 32.2193 73.4379H32.1631L22.3382 104.247H17.4248L7.65934 73.4379H7.60185C6.87778 82.6759 6.4209 92.9457 6.23123 104.247H0.347656C0.727874 90.5019 1.6794 77.6173 3.20223 65.5898H11.1999Z" fill="#00758F"/>
<path d="M115.492 65.0159C125.506 65.0159 130.513 71.4137 130.513 84.2029C130.513 91.1527 129.007 96.4022 125.998 99.9486C125.456 100.597 124.857 101.157 124.226 101.675L131.312 105.179L131.305 105.179L128.789 109.524L119.56 104.139C118.03 104.592 116.348 104.819 114.513 104.819C109.596 104.819 105.924 103.386 103.495 100.523C100.83 97.3567 99.4977 92.3717 99.4977 85.5768C99.4977 78.6662 101.001 73.4366 104.011 69.8856C106.752 66.6374 110.58 65.0159 115.492 65.0159ZM84.826 65.0718C88.4051 65.0718 91.6595 66.0295 94.5908 67.9381L93.102 71.2559C90.5936 70.1897 88.1206 69.6543 85.6818 69.6543C83.703 69.6543 82.1782 70.1306 81.1153 71.089C80.0465 72.0389 79.3854 73.2612 79.3854 74.7514C79.3854 77.0412 81.0166 79.0268 84.0287 80.7045C85.0154 81.2439 85.9988 81.7895 86.9786 82.3413L87.2033 82.4677L87.316 82.5311L87.5411 82.6575L87.6535 82.7209L87.8782 82.8476C90.1582 84.133 92.3036 85.3599 92.3036 85.3599C95.3153 87.4978 96.8166 89.7771 96.8166 93.5313C96.8166 96.8099 95.6152 99.5011 93.2202 101.607C90.8236 103.703 87.6038 104.755 83.5717 104.755C79.8005 104.755 76.1457 103.545 72.6055 101.145L74.2616 97.8244C77.3082 99.3515 80.0651 100.114 82.5408 100.114C84.8626 100.114 86.6801 99.5958 87.9948 98.5721C89.307 97.5409 90.0932 96.1027 90.0932 94.279C90.0932 91.9837 88.4965 90.0215 85.5675 88.3755C84.6507 87.869 83.7366 87.3575 82.8253 86.8412L82.6009 86.7142C82.1887 86.4813 81.7735 86.2454 81.3668 86.0145L81.1463 85.8891C79.1685 84.7641 77.4585 83.7812 77.4585 83.7812C74.5304 81.6394 73.0621 79.3414 73.0621 75.5549C73.0621 72.4233 74.157 69.8921 76.3436 67.9666C78.5356 66.0367 81.3631 65.0718 84.826 65.0718ZM142.282 65.5892V99.4913H154.445V104.247H136.113V65.5895L142.282 65.5892ZM161.204 99.506V100.31H159.867V104.242H158.845V100.31H157.455V99.506H161.204ZM163.674 99.506L164.958 102.735L166.137 99.506H167.587V104.242H166.623V100.638L165.281 104.242H164.586L163.241 100.638H163.189V104.242H162.278V99.506H163.674ZM114.862 69.77C108.961 69.77 106.008 74.6403 106.008 84.3744C106.008 89.9503 106.791 93.9935 108.352 96.5136C109.799 98.8459 112.064 100.01 115.149 100.01C121.05 100.01 124.002 95.1015 124.002 85.2897C124.002 79.7919 123.22 75.7832 121.66 73.2618C120.212 70.9348 117.947 69.77 114.862 69.77" fill="#F29111"/>
<path d="M99.3917 2.89533C101.349 -1.91488 108.194 1.72789 110.85 3.40817C111.502 3.82856 112.248 4.71672 112.995 5.045C114.159 5.09073 115.323 5.18186 116.489 5.23053C118.677 5.74468 120.726 6.16474 122.45 7.14665C130.462 11.8651 135.678 16.6733 140.478 24.6154C141.504 26.2977 142.016 28.1181 142.854 29.9385C144.017 32.6519 145.324 35.5003 146.673 38.0661C147.278 39.2826 147.745 40.6352 148.584 41.6625C148.912 42.1322 149.842 42.2707 150.399 42.5513C151.937 43.3474 153.8 43.9517 155.246 44.8859C157.947 46.5701 160.559 48.577 162.933 50.6316C163.818 51.4247 164.421 52.5474 165.264 53.3862V53.8096C164.515 54.0392 163.77 54.2744 163.023 54.4629C161.393 54.8816 159.949 54.7869 158.367 55.206C157.39 55.4895 156.176 55.8635 155.151 55.9586L155.246 56.054C155.849 57.777 159.112 59.1783 160.604 60.2089C162.416 61.5168 164.095 63.103 165.447 64.9247C165.914 65.3895 166.381 65.8126 166.845 66.2761C167.17 66.7458 167.261 67.3533 167.59 67.7721V67.9139C167.226 67.7855 166.964 67.5405 166.716 67.2844L166.568 67.1299C166.42 66.9764 166.271 66.8255 166.101 66.701C165.073 65.9987 164.052 65.1586 163.023 64.5056C161.255 63.3839 159.205 62.7329 157.39 61.607C156.364 60.9533 155.385 60.2089 154.407 59.4609C153.52 58.8053 152.543 57.5464 151.986 56.6122C151.658 56.0961 151.613 55.4895 151.238 55.1161C151.305 54.4926 151.876 54.3074 152.453 54.1551L152.585 54.1202C152.784 54.0686 152.979 54.017 153.149 53.9487C155.571 52.9204 158.458 52.5474 162.186 52.6408C162.046 51.7046 159.716 50.5382 158.972 49.9777C157.479 48.9017 155.899 47.779 154.315 46.7997C153.476 46.2869 152.03 45.9125 151.1 45.4934C149.842 44.9793 147.047 44.4655 146.35 43.4862C145.165 41.9425 144.315 40.1011 143.489 38.2412L143.264 37.7336L143.039 37.2263C142.063 34.9865 140.85 32.6513 139.872 30.3579C139.361 29.2391 139.126 28.2572 138.566 27.1842C135.166 20.5996 130.135 15.0868 124.035 11.2098C122.03 9.9483 119.795 8.78086 117.327 7.98744C115.929 7.56508 114.251 7.79864 112.761 7.4746H111.78C110.943 7.23876 110.245 6.35159 109.592 5.88383C108.149 4.90454 106.705 4.247 104.98 3.5483C104.376 3.26803 102.65 2.61539 102.048 3.12921C101.675 3.22296 101.486 3.36374 101.394 3.73808C101.023 4.29665 101.349 5.13809 101.58 5.65321C102.28 7.14599 103.257 8.03317 104.144 9.29468C104.934 10.4134 105.914 11.675 106.473 12.8914C107.681 15.5062 108.243 18.4032 109.362 21.0177C109.776 22.0009 110.433 23.1197 111.037 24.0066C111.549 24.7105 112.479 25.2194 112.761 26.1105C113.322 27.0447 111.921 30.1273 111.596 31.1062C110.383 34.9368 110.618 40.2615 112.015 43.5819L112.09 43.757L112.164 43.9344C112.674 45.1505 113.221 46.46 114.577 46.8C114.671 46.7073 114.577 46.7559 114.762 46.7073C115.091 44.1372 115.183 41.6622 116.069 39.6513C116.581 38.3941 117.603 37.5053 118.304 36.4789C118.771 36.7586 118.771 37.6016 119.049 38.1595C119.655 39.6066 120.306 41.1931 121.054 42.6444C122.588 45.6332 124.314 48.5309 126.269 51.1454C126.924 52.0793 127.853 53.1073 128.692 53.9484C129.065 54.2741 129.483 54.4622 129.764 54.8813H129.855V55.0224C128.458 54.5073 127.572 53.0615 126.457 52.2175C124.359 50.631 121.846 48.2484 120.4 45.9622C119.795 44.6497 119.141 43.3918 118.489 42.0858V41.9914C118.21 42.3645 118.304 42.7349 118.164 43.2993C117.559 45.6332 118.025 48.2957 115.929 49.1352C113.553 50.1184 111.78 47.5487 111.037 46.3809C108.66 42.5049 108.009 35.9661 109.685 30.6878C110.057 29.5194 110.108 28.1181 110.758 27.1852C110.618 26.3418 109.968 26.1111 109.592 25.5944C108.94 24.7111 108.381 23.6822 107.871 22.7013C106.89 20.7852 106.192 18.4957 105.448 16.4407C105.121 15.6016 105.027 14.7592 104.701 13.9648C104.144 12.7522 103.118 11.5358 102.327 10.4631C101.255 8.92132 98.1334 5.93315 99.3917 2.89533ZM114.67 12.0464C114.794 12.1711 114.944 12.2802 115.1 12.3877L115.287 12.5164C115.537 12.6895 115.779 12.8718 115.928 13.12C116.163 13.4487 116.207 13.773 116.488 14.1023C116.488 15.225 116.163 15.9714 115.506 16.4365C115.506 16.4365 115.461 16.4855 115.415 16.5312C115.043 15.7829 114.716 15.0385 114.341 14.2908C113.879 13.6381 113.227 13.1204 112.85 12.3746H112.76V12.2809C113.322 12.1421 113.879 12.0464 114.67 12.0464Z" fill="#00758F"/>
</g>
<defs>
<clipPath id="clip0_972_986">
<rect width="167.244" height="114" fill="white" transform="translate(0.347656 0.5)"/>
</clipPath>
</defs>
</svg>
