<svg width="347" height="115" viewBox="0 0 347 115" fill="none" xmlns="http://www.w3.org/2000/svg">
<g clip-path="url(#clip0_972_941)">
<path d="M57.6295 3.34865C58.5577 4.50079 59.0312 6.05632 59.9783 9.16737L80.6656 77.1248C72.895 73.0922 64.5546 70.2686 55.9323 68.7516L42.4634 23.2339C42.3561 22.8707 42.134 22.5521 41.8304 22.3257C41.5268 22.0993 41.1581 21.9772 40.7794 21.9778C40.4007 21.9785 40.0324 22.1017 39.7295 22.3291C39.4267 22.5564 39.2056 22.8758 39.0994 23.2393L25.7931 68.7287C17.1321 70.2388 8.75364 73.067 0.949219 77.1147L21.7377 9.15118C22.6881 6.0462 23.163 4.49337 24.0919 3.34325C24.9107 2.32671 25.9768 1.53746 27.1881 1.05111C28.5608 0.5 30.1845 0.5 33.4325 0.5H48.2808C51.5322 0.5 53.1579 0.5 54.5312 1.05314C55.7435 1.54082 56.8097 2.33116 57.6295 3.34865Z" fill="#F5F5F5"/>
<path d="M60.1048 80.3584C56.6949 83.2745 49.8879 85.2631 42.0469 85.2631C32.4237 85.2631 24.358 82.2674 22.2176 78.2383C21.452 80.5473 21.2807 83.1895 21.2807 84.8786C21.2807 84.8786 20.7768 93.1689 26.5422 98.9343C26.5424 97.4966 27.1137 96.1178 28.1304 95.1013C29.1471 94.0847 30.5259 93.5136 31.9636 93.5136C37.095 93.5136 37.0896 97.9906 37.0849 101.623V101.947C37.0849 107.46 40.4543 112.187 45.2463 114.179C44.5091 112.66 44.1269 110.994 44.1286 109.306C44.1286 104.048 47.216 102.09 50.804 99.8153C53.658 98.0041 56.8298 95.9926 59.016 91.9574C60.1921 89.7835 60.8065 87.3502 60.8036 84.8786C60.8036 83.3022 60.5587 81.7837 60.1048 80.3584Z" fill="#FF5D01"/>
<path d="M128.16 76.0629C136.813 76.0629 143.304 72.9842 145.966 67.7429C145.966 70.2387 146.131 72.8182 146.548 74.8149H160.774L160.734 74.6355C160.103 71.7686 159.784 67.8839 159.777 62.8274V49.8543C159.777 37.7069 152.621 31.9664 136.73 31.9664C122.835 31.9664 113.517 37.7069 112.435 47.1089H127.245C127.744 43.0319 131.155 40.7856 136.73 40.7856C142.221 40.7856 145.299 43.0319 145.299 47.6917V48.9396L130.24 50.2705C122.992 51.0125 118.842 52.2423 115.934 54.2045L115.847 54.2639C112.768 56.3442 111.188 59.5059 111.188 63.4163C111.188 71.2371 117.677 76.0629 128.16 76.0629ZM133.652 67.4096C128.825 67.4096 125.914 65.4966 125.914 62.4179C125.914 59.2563 128.326 57.5922 134.4 56.8434L145.549 55.6784V58.1743C145.549 63.7488 140.724 67.4096 133.652 67.4096ZM190.783 76.0629C205.261 76.0629 212.665 70.6549 212.665 61.9188C212.665 54.6808 208.504 50.6867 198.438 49.3552L185.873 47.9406C182.297 47.4414 180.798 46.5261 180.798 44.5294C180.798 42.1165 183.211 41.0352 188.702 41.0352C196.273 41.0352 201.515 42.7823 205.76 46.1935L212.498 39.4547C207.839 34.6289 199.769 31.9664 189.785 31.9664C175.724 31.9664 167.902 36.9582 167.902 45.3618C167.902 52.6834 172.728 56.7604 182.711 58.0907L194.028 59.4222C198.52 60.005 199.852 60.8368 199.852 63.0001C199.852 65.4959 197.355 66.8275 191.531 66.8275C182.879 66.8275 177.055 64.4976 173.144 60.1717L165.49 66.4949C170.565 72.8182 179.217 76.0629 190.783 76.0629ZM224.412 42.6157V60.1717C224.412 70.4883 230.235 75.7303 242.716 75.7303C246.543 75.7303 249.538 75.3141 252.367 74.4824V63.6659L252.128 63.7185C250.675 64.0328 248.912 64.3316 246.626 64.3316C241.385 64.3316 238.806 62.0017 238.806 57.093V42.6157H252.45V33.2144H238.806V17.9883L224.412 23.3132V33.2144H215.093V42.6157H224.412ZM273.115 33.2144H259.969V74.8143H274.363V59.257C274.363 54.7644 275.361 50.6874 278.108 48.1079C280.271 46.1112 283.349 45.0299 287.675 45.0299C289.256 45.0299 290.504 45.1958 291.918 45.3624V32.299C291.004 32.1324 290.338 32.1324 289.173 32.1324C280.936 32.1324 275.362 36.8745 273.115 44.613V33.2144ZM320.362 76.0622C335.589 76.0622 346.322 67.9925 346.322 53.9313C346.322 39.9539 335.589 31.9664 320.362 31.9664C305.054 31.9664 294.321 39.9532 294.321 53.9313C294.321 67.9925 305.053 76.0629 320.362 76.0629M320.362 66.4956C313.374 66.4956 308.964 62.0031 308.964 53.932C308.964 45.8609 313.374 41.535 320.362 41.535C327.268 41.535 331.678 45.8616 331.678 53.932C331.678 62.0024 327.268 66.4956 320.362 66.4956Z" fill="#F5F5F5"/>
</g>
<defs>
<clipPath id="clip0_972_941">
<rect width="345.373" height="114" fill="white" transform="translate(0.949219 0.5)"/>
</clipPath>
</defs>
</svg>
