<svg width="77" height="115" viewBox="0 0 77 115" fill="none" xmlns="http://www.w3.org/2000/svg">
<g clip-path="url(#clip0_972_977)">
<path d="M19.9492 114.5C30.4372 114.5 38.9492 105.988 38.9492 95.5V76.5H19.9492C9.46122 76.5 0.949219 85.012 0.949219 95.5C0.949219 105.988 9.46122 114.5 19.9492 114.5Z" fill="#0ACF83"/>
<path d="M0.949219 57.5C0.949219 47.012 9.46122 38.5 19.9492 38.5H38.9492V76.5H19.9492C9.46122 76.5 0.949219 67.988 0.949219 57.5Z" fill="#A259FF"/>
<path d="M0.949219 19.5C0.949219 9.012 9.46122 0.5 19.9492 0.5H38.9492V38.5H19.9492C9.46122 38.5 0.949219 29.988 0.949219 19.5Z" fill="#F24E1E"/>
<path d="M38.9492 0.5H57.9492C68.4372 0.5 76.9492 9.012 76.9492 19.5C76.9492 29.988 68.4372 38.5 57.9492 38.5H38.9492V0.5Z" fill="#FF7262"/>
<path d="M76.9492 57.5C76.9492 67.988 68.4372 76.5 57.9492 76.5C47.4612 76.5 38.9492 67.988 38.9492 57.5C38.9492 47.012 47.4612 38.5 57.9492 38.5C68.4372 38.5 76.9492 47.012 76.9492 57.5Z" fill="#1ABCFE"/>
</g>
<defs>
<clipPath id="clip0_972_977">
<rect width="76" height="114" fill="white" transform="translate(0.949219 0.5)"/>
</clipPath>
</defs>
</svg>
