<svg width="116" height="115" viewBox="0 0 116 115" fill="none" xmlns="http://www.w3.org/2000/svg">
<g clip-path="url(#clip0_972_915)">
<path d="M57.3577 0.53125C28.374 0.53125 30.1837 13.1003 30.1837 13.1003L30.2159 26.1222H57.8745V30.0318H19.2303C19.2303 30.0318 0.683594 27.9284 0.683594 57.1727C0.683594 86.418 16.8716 85.3808 16.8716 85.3808H26.5325V71.8099C26.5325 71.8099 26.0117 55.6219 42.4622 55.6219H69.8946C69.8946 55.6219 85.3069 55.8709 85.3069 40.7263V15.6857C85.3069 15.6857 87.6477 0.53125 57.3577 0.53125ZM42.1067 9.28824C42.7603 9.28765 43.4076 9.41595 44.0116 9.6658C44.6155 9.91565 45.1643 10.2821 45.6265 10.7443C46.0886 11.2065 46.4551 11.7552 46.7049 12.3592C46.9548 12.9631 47.0831 13.6104 47.0825 14.264C47.0831 14.9176 46.9548 15.5649 46.7049 16.1688C46.4551 16.7728 46.0886 17.3216 45.6265 17.7837C45.1643 18.2459 44.6155 18.6124 44.0116 18.8622C43.4076 19.1121 42.7603 19.2404 42.1067 19.2398C41.4532 19.2404 40.8059 19.1121 40.2019 18.8622C39.5979 18.6124 39.0492 18.2459 38.587 17.7837C38.1249 17.3216 37.7584 16.7728 37.5085 16.1688C37.2587 15.5649 37.1304 14.9176 37.131 14.264C37.1304 13.6104 37.2587 12.9631 37.5085 12.3592C37.7584 11.7552 38.1249 11.2065 38.587 10.7443C39.0492 10.2821 39.5979 9.91565 40.2019 9.6658C40.8059 9.41595 41.4532 9.28765 42.1067 9.28824Z" fill="url(#paint0_linear_972_915)"/>
<path d="M58.1791 114.11C87.1628 114.11 85.3531 101.541 85.3531 101.541L85.3209 88.5194H57.6619V84.6099H96.3061C96.3061 84.6099 114.853 86.7133 114.853 57.468C114.853 28.2232 98.6648 29.2604 98.6648 29.2604H89.0038V42.8309C89.0038 42.8309 89.5246 59.0189 73.0742 59.0189H45.6418C45.6418 59.0189 30.2294 58.7699 30.2294 73.9149V98.956C30.2294 98.956 27.8891 114.11 58.1787 114.11M73.4296 105.354C72.776 105.354 72.1287 105.226 71.5248 104.976C70.9208 104.726 70.3721 104.36 69.9099 103.898C69.4478 103.436 69.0813 102.887 68.8314 102.283C68.5816 101.679 68.4533 101.032 68.4539 100.378C68.4532 99.7245 68.5815 99.0771 68.8313 98.4731C69.0811 97.8691 69.4476 97.3203 69.9098 96.8581C70.3719 96.3959 70.9207 96.0294 71.5247 95.7795C72.1287 95.5296 72.776 95.4013 73.4296 95.4019C74.0832 95.4013 74.7305 95.5296 75.3345 95.7794C75.9384 96.0293 76.4872 96.3958 76.9493 96.8579C77.4115 97.3201 77.778 97.8689 78.0278 98.4728C78.2777 99.0768 78.406 99.724 78.4054 100.378C78.406 101.031 78.2777 101.679 78.0278 102.282C77.778 102.886 77.4115 103.435 76.9493 103.897C76.4872 104.36 75.9384 104.726 75.3345 104.976C74.7305 105.226 74.0832 105.354 73.4296 105.354Z" fill="url(#paint1_linear_972_915)"/>
</g>
<defs>
<linearGradient id="paint0_linear_972_915" x1="1097.86" y1="1022.09" x2="6755.82" y2="6623.6" gradientUnits="userSpaceOnUse">
<stop stop-color="#387EB8"/>
<stop offset="1" stop-color="#366994"/>
</linearGradient>
<linearGradient id="paint1_linear_972_915" x1="1649.66" y1="1775.47" x2="7725.66" y2="7519.3" gradientUnits="userSpaceOnUse">
<stop stop-color="#FFE052"/>
<stop offset="1" stop-color="#FFC331"/>
</linearGradient>
<clipPath id="clip0_972_915">
<rect width="114.447" height="114" fill="white" transform="translate(0.617188 0.5)"/>
</clipPath>
</defs>
</svg>
