<svg width="433" height="115" viewBox="0 0 433 115" fill="none" xmlns="http://www.w3.org/2000/svg">
<g clip-path="url(#clip0_972_983)">
<path d="M34.1089 12.1618C29.7178 6.95162 25.9355 1.66033 25.1637 0.560864C25.1453 0.541627 25.1232 0.526316 25.0988 0.515855C25.0743 0.505394 25.048 0.5 25.0214 0.5C24.9948 0.5 24.9685 0.505394 24.944 0.515855C24.9196 0.526316 24.8975 0.541627 24.8791 0.560864C24.1064 1.66033 20.325 6.95162 15.9339 12.1618C-21.7579 60.2327 21.8704 92.6729 21.8704 92.6729L22.236 92.9178C22.5611 97.9236 23.3743 105.128 23.3743 105.128H26.6271C26.6271 105.128 27.4403 97.9642 27.7654 92.9178L28.1319 92.6323C28.1724 92.6729 71.7998 60.2327 34.1089 12.1618ZM25.0007 91.9407C25.0007 91.9407 23.0492 90.2713 22.5206 89.4175V89.3356L24.8791 36.991C24.8791 36.8281 25.1232 36.8281 25.1232 36.991L27.4808 89.3356V89.4175C26.9522 90.2713 25.0007 91.9407 25.0007 91.9407Z" fill="#01EC64"/>
<path d="M106.648 81.2591L88.467 36.8557L88.4273 36.7333H74.2829V39.7175H76.5646C77.2578 39.7175 77.9098 40.0046 78.3995 40.4944C78.8885 40.985 79.1334 41.6395 79.1334 42.3353L78.7255 87.0233C78.7255 88.4141 77.5846 89.5583 76.1981 89.5997L73.875 89.6402V92.584H87.653V89.6402L86.2258 89.5997C84.8401 89.5583 83.6984 88.4141 83.6984 87.0242V44.9092L103.509 92.5831C103.795 93.2781 104.446 93.7282 105.181 93.7282C105.914 93.7282 106.566 93.2781 106.851 92.5831L126.215 45.9723L126.5 87.0233C126.5 88.4538 125.358 89.5989 123.931 89.6394H122.463V92.5831H138.606V89.6394H136.404C135.02 89.6394 133.877 88.4538 133.837 87.0638L133.714 42.3742C133.713 41.6954 133.977 41.0429 134.448 40.5547C134.92 40.0665 135.563 39.7809 136.241 39.7581L138.606 39.7167V36.7324H124.828L106.648 81.2591ZM233.41 88.8625C232.961 88.4124 232.715 87.7985 232.715 87.0605V65.1083C232.715 60.9308 231.49 57.6535 229.037 55.3195C226.626 52.9846 223.275 51.7973 219.107 51.7973C213.262 51.7973 208.644 54.1727 205.415 58.8417C205.374 58.9236 205.252 58.965 205.13 58.965C205.007 58.965 204.925 58.8822 204.925 58.7598L203.413 52.9027H200.879L194.381 56.6301V58.6778H196.056C196.833 58.6778 197.486 58.8822 197.937 59.2926C198.386 59.7022 198.631 60.3161 198.631 61.1757V87.0199C198.631 87.7571 198.386 88.3719 197.937 88.8228C197.486 89.2729 196.873 89.5186 196.138 89.5186H194.503V92.508H209.461V89.5186H207.827C207.09 89.5186 206.477 89.2729 206.028 88.8228C205.579 88.3719 205.333 87.7571 205.333 87.0199V69.8997C205.333 67.7294 205.824 65.5584 206.723 63.4278C207.663 61.3395 209.052 59.578 210.891 58.2261C212.73 56.8741 214.938 56.2197 217.471 56.2197C220.332 56.2197 222.498 57.1207 223.847 58.9227C225.195 60.7248 225.89 63.0597 225.89 65.8446V86.9786C225.89 87.7158 225.645 88.3297 225.195 88.7806C224.745 89.2315 224.133 89.4764 223.397 89.4764H221.763V92.4666H236.72V89.4773H235.086C234.473 89.5592 233.901 89.3134 233.41 88.8625ZM370.069 40.0764C365.935 37.875 361.314 36.7324 356.327 36.7324H336.871V39.7091H338.776C339.505 39.7091 340.154 39.9945 340.802 40.6464C341.41 41.2586 341.734 41.9519 341.734 42.6858V86.5546C341.734 87.2893 341.411 87.9818 340.802 88.594C340.194 89.2054 339.505 89.5313 338.776 89.5313H336.87V92.508H356.327C361.314 92.508 365.935 91.3663 370.069 89.164C374.203 86.9617 377.568 83.7004 380 79.5424C382.432 75.3843 383.689 70.3692 383.689 64.6607C383.689 58.9531 382.432 53.9785 380 49.7799C377.528 45.54 374.203 42.3184 370.069 40.0764ZM375.867 64.5797C375.867 69.7983 374.935 74.2013 373.11 77.7488C371.286 81.2954 368.854 83.9453 365.854 85.6587C362.855 87.3704 359.53 88.2266 355.963 88.2266H352.032C351.302 88.2266 350.653 87.9412 350.005 87.2893C349.397 86.6771 349.073 85.9846 349.073 85.2508V43.868C349.073 43.1333 349.356 42.4822 350.005 41.8295C350.613 41.2181 351.302 40.8922 352.032 40.8922H355.963C359.53 40.8922 362.854 41.7476 365.854 43.4601C368.855 45.1726 371.286 47.8225 373.11 51.37C374.934 54.9572 375.867 59.4015 375.867 64.5797ZM429.682 67.5563C427.882 65.4765 424.409 63.7234 420.325 62.7852C425.964 59.9724 428.863 56.0178 428.863 50.9208C428.863 48.1493 428.13 45.6616 426.657 43.542C425.188 41.4225 423.102 39.7091 420.448 38.5269C417.789 37.3446 414.684 36.7333 411.17 36.7333H389.146V39.7091H390.902C391.638 39.7091 392.292 39.9945 392.946 40.6464C393.559 41.2586 393.886 41.9519 393.886 42.6858V86.5546C393.886 87.2893 393.559 87.9818 392.946 88.594C392.333 89.2054 391.638 89.5313 390.902 89.5313H388.982V92.508H412.888C416.524 92.508 419.914 91.8966 422.98 90.673C426.045 89.4502 428.497 87.6558 430.255 85.2914C432.051 82.9269 432.95 80.0313 432.95 76.6882C432.91 73.101 431.847 70.0424 429.682 67.5563ZM402.263 87.3298C401.649 86.7185 401.323 86.0252 401.323 85.2914V65.5981H412.683C416.686 65.5981 419.75 66.617 421.876 68.655C424 70.694 425.063 73.3444 425.063 76.6062C425.063 78.5628 424.57 80.4797 423.675 82.2328C422.734 84.0264 421.342 85.4535 419.466 86.5546C417.625 87.655 415.337 88.2266 412.683 88.2266H404.304C403.569 88.2266 402.914 87.9404 402.261 87.329M401.362 61.3986V43.9085C401.362 43.1747 401.648 42.5228 402.301 41.87C402.914 41.2586 403.609 40.9327 404.345 40.9327H409.739C413.619 40.9327 416.481 41.9114 418.281 43.7869C420.076 45.703 420.975 48.1493 420.975 51.1657C420.975 54.2648 420.117 56.7517 418.443 58.6272C416.766 60.4613 414.233 61.3995 410.883 61.3995L401.362 61.3986ZM176.467 54.3965C173.344 52.6907 169.856 51.7956 166.085 51.7956C162.413 51.7956 158.972 52.6054 155.948 54.2614L155.704 54.3965C152.581 56.1031 150.108 58.5816 148.283 61.7102C146.459 64.8389 145.526 68.4962 145.526 72.5588C145.526 76.6223 146.458 80.2796 148.283 83.4082C150.108 86.5369 152.581 89.0154 155.704 90.7211C158.827 92.4269 162.315 93.322 166.085 93.322C169.757 93.322 173.199 92.513 176.222 90.8579L176.467 90.722C179.588 89.0154 182.063 86.5369 183.888 83.4082C185.712 80.2796 186.645 76.6223 186.645 72.5588C186.645 68.4962 185.712 64.8389 183.888 61.7102C182.064 58.5816 179.589 56.1023 176.467 54.3965ZM179.467 72.5597C179.467 77.5579 178.251 81.6206 175.817 84.5466C173.425 87.4717 170.141 88.9748 166.085 88.9748C162.103 88.9748 158.863 87.5249 156.482 84.7019L156.354 84.5466C153.92 81.6206 152.703 77.5579 152.703 72.5597C152.703 67.6534 153.877 63.6474 156.222 60.7341L156.354 60.5736C158.745 57.6485 162.031 56.1445 166.085 56.1445C170.141 56.1445 173.425 57.6476 175.817 60.5736C178.251 63.4996 179.467 67.5622 179.467 72.5597ZM320.178 54.3974C317.055 52.6916 313.568 51.7965 309.797 51.7965C306.125 51.7965 302.683 52.6063 299.66 54.2622L299.415 54.3974C296.293 56.104 293.82 58.5824 291.995 61.7111C290.17 64.8398 289.237 68.497 289.237 72.5597C289.237 76.6231 290.17 80.2804 291.995 83.4091C293.82 86.5378 296.293 89.0162 299.416 90.722C302.538 92.4286 306.025 93.3229 309.797 93.3229C313.468 93.3229 316.91 92.5139 319.933 90.8588L320.178 90.7228C323.3 89.0162 325.774 86.5378 327.598 83.4091C329.423 80.2804 330.356 76.6231 330.356 72.5597C330.356 68.497 329.423 64.8398 327.598 61.7111C325.774 58.5824 323.26 56.1031 320.178 54.3974ZM323.179 72.5605C323.179 77.5588 321.962 81.6214 319.529 84.5474C317.136 87.4726 313.852 88.9757 309.797 88.9757C305.814 88.9757 302.574 87.5258 300.194 84.7028L300.065 84.5474C297.632 81.6214 296.415 77.5588 296.415 72.5605C296.415 67.6138 297.588 63.6466 299.933 60.7349L300.065 60.5745C302.457 57.6493 305.742 56.1454 309.797 56.1454C313.852 56.1454 317.136 57.6485 319.529 60.5745C321.922 63.5005 323.179 67.5631 323.179 72.5605ZM262.222 51.7982C258.954 51.7982 255.973 52.492 253.277 53.8797C250.582 55.2671 248.458 57.1452 246.947 59.5535C245.444 61.8904 244.65 64.6124 244.661 67.3908C244.661 69.9216 245.232 72.2481 246.417 74.3305C247.559 76.3301 249.112 78.0038 251.072 79.3912L245.232 87.3104C244.498 88.29 244.416 89.5963 244.946 90.6578C245.518 91.7598 246.58 92.4126 247.805 92.4126H249.48C247.914 93.469 246.648 94.7128 245.755 96.1788L245.64 96.3721C244.579 98.1269 244.047 99.9644 244.047 101.842C244.047 105.289 245.545 108.147 248.499 110.297L248.662 110.414C251.685 112.577 255.932 113.679 261.282 113.679C264.998 113.679 268.552 113.067 271.778 111.883C274.952 110.734 277.547 109.044 279.49 106.853L279.659 106.659C281.66 104.372 282.682 101.597 282.682 98.4132C282.682 95.0658 281.456 92.698 278.598 90.4129C276.147 88.4943 272.308 87.4742 267.53 87.4742H251.195C251.171 87.4721 251.148 87.4626 251.13 87.4472L251.113 87.4329L251.105 87.416C251.097 87.3898 251.083 87.34 251.113 87.3104L255.36 81.5961C256.366 82.0646 257.421 82.4203 258.505 82.6567C259.485 82.861 260.588 82.943 261.813 82.943C265.243 82.943 268.347 82.2488 271.043 80.8614C273.738 79.4731 275.902 77.5959 277.455 75.1867C279.006 72.8198 279.782 70.1665 279.782 67.3503C279.782 64.3297 278.312 58.8189 274.31 56.0026C274.31 55.9773 274.324 55.968 274.336 55.9638L274.35 55.9613L283.131 56.9408V52.9002H269.082C266.877 52.206 264.589 51.7982 262.222 51.7982ZM267.122 77.351C265.57 78.1668 263.896 78.616 262.222 78.616C259.486 78.616 257.076 77.6365 255.034 75.7179C252.992 73.7993 251.971 70.9831 251.971 67.3908C251.971 63.7986 252.992 60.9815 255.034 59.0638C257.076 57.146 259.485 56.1656 262.222 56.1656C263.865 56.1656 265.434 56.5406 266.928 57.3259L267.122 57.4306C268.674 58.2472 269.94 59.513 270.961 61.1867C271.94 62.8604 272.472 64.9419 272.472 67.3908C272.472 69.8811 271.982 71.9626 270.961 73.595C269.981 75.2686 268.674 76.5345 267.122 77.351ZM256.055 92.3712H267.122C270.185 92.3712 272.145 92.9834 273.452 94.2898C274.758 95.5961 275.412 97.3509 275.412 99.3919C275.412 102.372 274.228 104.822 271.859 106.657C269.491 108.495 266.305 109.433 262.385 109.433C258.954 109.433 256.095 108.658 254.012 107.189C251.929 105.719 250.868 103.473 250.868 100.616C250.868 98.8202 251.358 97.1465 252.338 95.6772C253.318 94.2078 254.503 93.1464 256.054 92.3712" fill="#001E2B"/>
</g>
<defs>
<clipPath id="clip0_972_983">
<rect width="432.356" height="114" fill="white" transform="translate(0.59375 0.5)"/>
</clipPath>
</defs>
</svg>
