<svg width="393" height="115" viewBox="0 0 393 115" fill="none" xmlns="http://www.w3.org/2000/svg">
<g clip-path="url(#clip0_972_1299)">
<path d="M3.43603 88.9678V45.3716H57.8684V42.8215H3.43603V3.04932H61.3098V0.5H0.886719V91.5171H61.8193V88.9678H3.43603ZM110.898 25.9947L88.3354 55.6967L66.2814 25.9955H62.967L86.8052 57.6094L60.6717 91.5164H63.7313L88.3339 59.5199L113.064 91.5164H116.251L89.9911 57.6079L113.956 25.9939L110.898 25.9947ZM123.9 113.953V73.1616H124.155C125.685 79.11 128.702 83.8904 133.206 87.5027C137.71 91.1139 143.446 92.9198 150.415 92.9203C154.919 92.9203 158.913 92.0068 162.398 90.1797C165.882 88.3527 168.792 85.8669 171.13 82.7223C173.467 79.5777 175.251 75.9234 176.484 71.7592C177.717 67.595 178.333 63.2186 178.333 58.6301C178.333 53.7003 177.695 49.1535 176.42 44.9898C175.145 40.8251 173.297 37.2134 170.875 34.1545C168.453 31.0941 165.521 28.7146 162.079 27.0161C158.637 25.316 154.749 24.466 150.415 24.466C147.101 24.466 144.02 24.9547 141.173 25.9319C138.327 26.9092 135.798 28.2902 133.589 30.075C131.366 31.8739 129.432 34.0017 127.852 36.3848C126.238 38.8071 125.005 41.463 124.155 44.3525H123.9V25.9947H121.351V113.953H123.9ZM150.415 90.4973C142.427 90.4973 136.011 87.7567 131.167 82.2755C126.322 76.7943 123.9 68.912 123.9 58.6285C123.9 54.3792 124.495 50.3425 125.685 46.5185C126.875 42.6945 128.596 39.3378 130.847 36.4483C133.099 33.5587 135.882 31.2642 139.197 29.5646C142.512 27.8651 146.251 27.0151 150.415 27.0146C154.664 27.0146 158.382 27.8646 161.569 29.5646C164.756 31.2642 167.391 33.5799 169.473 36.5118C171.555 39.4436 173.127 42.8004 174.19 46.582C175.252 50.3636 175.783 54.3792 175.783 58.6285C175.783 62.4535 175.294 66.2566 174.317 70.0377C173.339 73.8188 171.831 77.2184 169.791 80.2365C167.752 83.2525 165.139 85.7169 161.952 87.6297C158.764 89.5414 154.919 90.4973 150.415 90.4973ZM192.355 91.5171V54.422C192.355 50.8525 192.865 47.3683 193.885 43.9692C194.904 40.5696 196.476 37.574 198.601 34.9823C200.726 32.3907 203.424 30.3509 206.696 28.863C209.967 27.3752 213.855 26.759 218.36 27.0146V24.4652C214.451 24.3806 211.03 24.8055 208.098 25.7399C205.166 26.6749 202.637 27.9498 200.513 29.5646C198.389 31.1795 196.689 33.0703 195.414 35.2371C194.141 37.4014 193.196 39.7426 192.609 42.1842H192.355V25.9947H189.805V91.5179L192.355 91.5171ZM221.546 59.2659H276.36C276.531 54.762 276.085 50.4279 275.022 46.2637C273.96 42.099 272.261 38.4023 269.924 35.1736C267.587 31.9439 264.569 29.3517 260.873 27.3971C257.176 25.4425 252.778 24.4652 247.679 24.4652C244.024 24.4652 240.455 25.2303 236.971 26.7606C233.487 28.2897 230.427 30.5203 227.793 33.4521C225.158 36.384 223.034 39.9749 221.419 44.2247C219.805 48.4746 218.998 53.3185 218.997 58.7563C218.997 63.6004 219.549 68.1257 220.654 72.3322C221.759 76.5388 223.459 80.1931 225.753 83.2954C228.048 86.3971 231.001 88.7977 234.613 90.4973C238.224 92.1973 242.579 93.0047 247.679 92.9196C255.157 92.9196 261.446 90.8163 266.545 86.6098C271.644 82.4033 274.661 76.4755 275.596 68.8265H273.047C271.942 76.0506 269.116 81.4683 264.569 85.0796C260.023 88.6914 254.307 90.4973 247.424 90.4973C242.75 90.4973 238.798 89.6901 235.568 88.0757C232.34 86.4608 229.705 84.2512 227.665 81.4469C225.626 78.642 224.117 75.3488 223.14 71.5671C222.162 67.786 221.631 63.6856 221.546 59.2659ZM273.811 56.7165H221.547C221.801 52.1275 222.651 48.0059 224.096 44.3517C225.541 40.6966 227.432 37.5735 229.769 34.9823C232.106 32.3907 234.825 30.4147 237.927 29.0543C241.029 27.694 244.365 27.0141 247.934 27.0146C252.183 27.0146 255.922 27.8008 259.152 29.3734C262.381 30.9459 265.079 33.0918 267.247 35.8109C269.413 38.5306 271.049 41.6961 272.154 45.3074C273.259 48.9196 273.811 52.7227 273.811 56.7165ZM329.263 45.3716H331.813C331.813 38.0624 329.688 32.7508 325.439 29.4369C321.189 26.1225 315.41 24.4652 308.102 24.4652C304.023 24.4652 300.581 24.9753 297.776 25.9955C294.972 27.0156 292.677 28.3326 290.893 29.9464C289.109 31.5608 287.834 33.3455 287.069 35.3006C286.304 37.2557 285.921 39.1253 285.921 40.9096C285.921 44.4785 286.559 47.3254 287.834 49.4504C289.109 51.5748 291.105 53.232 293.825 54.422C295.694 55.2713 297.819 56.0364 300.199 56.7173C302.578 57.3967 305.34 58.1187 308.485 58.8833C311.289 59.5642 314.051 60.2442 316.771 60.9231C319.49 61.6035 321.891 62.517 323.973 63.6636C326.055 64.8113 327.755 66.2775 329.072 68.0622C330.389 69.8469 331.048 72.1838 331.048 75.0728C331.048 77.8777 330.389 80.2572 329.072 82.2112C327.766 84.1561 326.047 85.7887 324.037 86.9923C321.997 88.2241 319.723 89.1163 317.217 89.6687C314.71 90.2211 312.267 90.4973 309.887 90.4973C302.154 90.4973 296.226 88.7765 292.104 85.3351C287.983 81.8932 285.922 76.4753 285.922 69.0813H283.372C283.372 77.325 285.603 83.3591 290.064 87.1836C294.526 91.0076 301.134 92.9196 309.887 92.9196C312.691 92.9196 315.517 92.6008 318.364 91.9632C321.211 91.3261 323.76 90.2851 326.012 88.8401C328.245 87.4151 330.12 85.4964 331.494 83.2319C332.896 80.9366 333.598 78.132 333.598 74.8181C333.598 71.6735 332.981 69.1239 331.749 67.1693C330.517 65.2148 328.902 63.6001 326.905 62.3255C324.907 61.0508 322.655 60.0524 320.149 59.3301C317.627 58.6036 315.099 57.9022 312.563 57.2261C309.443 56.4075 306.32 55.6003 303.194 54.8045C300.518 54.1246 298.032 53.3172 295.737 52.3822C293.528 51.4473 291.764 50.1089 290.447 48.367C289.13 46.6246 288.471 44.1388 288.471 40.9096C288.471 40.3148 288.641 39.2526 288.981 37.7229C289.321 36.1927 290.128 34.6416 291.403 33.0696C292.678 31.4975 294.632 30.0954 297.267 28.863C299.901 27.6307 303.513 27.0146 308.102 27.0146C311.246 27.0146 314.114 27.3545 316.707 28.0344C319.299 28.7144 321.529 29.798 323.399 31.2854C325.268 32.7727 326.713 34.6635 327.733 36.9578C328.753 39.2531 329.263 42.0577 329.263 45.3716ZM388.284 45.3716H390.833C390.833 38.0624 388.709 32.7508 384.46 29.4369C380.211 26.123 374.432 24.4658 367.123 24.4652C363.044 24.4652 359.602 24.9753 356.798 25.9955C353.993 27.0151 351.698 28.3321 349.914 29.9464C348.129 31.5608 346.854 33.3455 346.089 35.3006C345.324 37.2557 344.942 39.1253 344.943 40.9096C344.943 44.4785 345.58 47.3254 346.855 49.4504C348.129 51.5748 350.126 53.232 352.846 54.422C354.716 55.2713 356.84 56.0364 359.219 56.7173C361.599 57.3967 364.361 58.1187 367.505 58.8833C370.31 59.5642 373.072 60.2442 375.791 60.9231C378.511 61.6035 380.912 62.517 382.994 63.6636C385.076 64.8113 386.776 66.2775 388.093 68.0622C389.41 69.8464 390.069 72.1833 390.069 75.0728C390.069 77.8777 389.41 80.2572 388.093 82.2112C386.787 84.156 385.068 85.7886 383.058 86.9923C381.018 88.2241 378.744 89.1163 376.237 89.6687C373.73 90.2211 371.287 90.4973 368.908 90.4973C361.174 90.4973 355.247 88.7765 351.125 85.3351C347.003 81.8932 344.942 76.4753 344.943 69.0813H342.393C342.393 77.325 344.624 83.3591 349.086 87.1836C353.547 91.0076 360.154 92.9196 368.908 92.9196C371.713 92.9196 374.538 92.6008 377.385 91.9632C380.231 91.3261 382.781 90.2851 385.034 88.8401C387.266 87.4151 389.142 85.4964 390.515 83.2319C391.918 80.9366 392.619 78.132 392.618 74.8181C392.618 71.6735 392.002 69.1239 390.77 67.1693C389.537 65.2148 387.923 63.6001 385.926 62.3255C383.929 61.0508 381.677 60.0524 379.17 59.3301C376.649 58.6036 374.12 57.9022 371.585 57.2261C368.465 56.4075 365.342 55.6003 362.215 54.8045C359.538 54.1246 357.052 53.3172 354.758 52.3822C352.548 51.4473 350.785 50.1089 349.468 48.367C348.151 46.6246 347.492 44.1388 347.492 40.9096C347.492 40.3148 347.662 39.2526 348.002 37.7229C348.342 36.1932 349.15 34.6421 350.424 33.0696C351.699 31.4981 353.653 30.0959 356.287 28.863C358.922 27.6312 362.534 27.0151 367.124 27.0146C370.268 27.0146 373.136 27.3545 375.728 28.0344C378.32 28.7144 380.551 29.798 382.42 31.2854C384.29 32.7727 385.734 34.6635 386.755 36.9578C387.775 39.2531 388.285 42.0577 388.285 45.3716" fill="#222222"/>
</g>
<defs>
<clipPath id="clip0_972_1299">
<rect width="391.732" height="114" fill="white" transform="translate(0.886719 0.5)"/>
</clipPath>
</defs>
</svg>
