<svg width="114" height="115" viewBox="0 0 114 115" fill="none" xmlns="http://www.w3.org/2000/svg">
<g clip-path="url(#clip0_972_910)">
<path d="M0 0.5H114V114.5H0V0.5Z" fill="#F7DF1E"/>
<path d="M29.9731 95.7668L38.6968 90.4872C40.3801 93.4712 41.911 95.9962 45.5835 95.9962C49.1037 95.9962 51.3236 94.6193 51.3236 89.263V52.8374H62.0365V89.4144C62.0365 100.51 55.5323 105.561 46.0426 105.561C37.4726 105.561 32.498 101.123 29.9727 95.7659M67.8554 94.6188L76.5782 89.5685C78.8746 93.3185 81.8591 96.0732 87.1387 96.0732C91.5781 96.0732 94.4085 93.8538 94.4085 90.7927C94.4085 87.1197 91.5006 85.8185 86.603 83.6766L83.9254 82.5277C76.1961 79.2382 71.0692 75.1057 71.0692 66.382C71.0692 58.3468 77.1909 52.2246 86.7567 52.2246C93.5673 52.2246 98.4648 54.5972 101.985 60.7955L93.643 66.1526C91.8061 62.8622 89.8173 61.5615 86.7562 61.5615C83.6185 61.5615 81.6289 63.5511 81.6289 66.1526C81.6289 69.3665 83.6186 70.6681 88.2097 72.6578L90.8878 73.8053C99.9945 77.7085 105.121 81.6874 105.121 90.6399C105.121 100.283 97.5457 105.562 87.3681 105.562C77.4202 105.562 70.9922 100.818 67.8549 94.6193" fill="#F5F5F5"/>
</g>
<defs>
<clipPath id="clip0_972_910">
<rect width="114" height="114" fill="white" transform="translate(0 0.5)"/>
</clipPath>
</defs>
</svg>
