<svg width="913" height="115" viewBox="0 0 913 115" fill="none" xmlns="http://www.w3.org/2000/svg">
<g clip-path="url(#clip0_972_997)">
<path d="M94.4897 0.5C69.3776 0.5 53.6824 13.056 47.4041 38.1681C56.821 25.6103 67.8077 20.9018 80.3643 24.0428C87.5268 25.8329 92.6478 31.0306 98.3158 36.7841C107.548 46.1534 118.234 57.0012 141.573 57.0012C166.686 57.0012 182.38 44.4452 188.657 19.3332C179.24 31.891 168.254 36.5994 155.699 33.4585C148.535 31.6683 143.415 26.4706 137.747 20.7172C128.513 11.3478 117.829 0.5 94.4897 0.5ZM47.4041 57.0012C22.2932 57.0012 6.59862 69.5573 0.320312 94.6693C9.73719 82.1115 20.7233 77.4031 33.2788 80.544C40.443 82.3342 45.5641 87.5319 51.2302 93.2835C60.4642 102.656 71.1499 113.501 94.4897 113.501C119.601 113.501 135.295 100.945 141.573 75.8344C132.157 88.3922 121.17 93.1007 108.615 89.9597C101.451 88.1696 96.3297 82.9719 90.6617 77.2184C81.4295 67.8491 70.7438 57.0012 47.4041 57.0012Z" fill="url(#paint0_linear_972_997)"/>
<path d="M282.812 48.1137H266.378V79.9232C266.378 88.4055 271.944 88.2737 282.812 87.7429V100.598C260.811 103.249 252.064 97.1533 252.064 79.9232V48.1155H239.871V34.3321H252.064V16.5303L266.378 12.291V34.3321H282.812V48.1137ZM345.458 34.3321H359.772V100.598H345.458V91.056C340.423 98.0813 332.603 102.322 322.266 102.322C304.24 102.322 289.263 87.0803 289.263 67.4652C289.263 47.7182 304.24 32.6097 322.265 32.6097C332.603 32.6097 340.423 36.849 345.458 43.7425V34.3321ZM324.518 88.671C336.445 88.671 345.458 79.7914 345.458 67.4652C345.458 55.1389 336.445 46.2594 324.518 46.2594C312.591 46.2594 303.577 55.1389 303.577 67.4652C303.577 79.7914 312.591 88.671 324.518 88.671ZM383.629 24.391C378.591 24.391 374.484 20.1516 374.484 15.2478C374.488 12.8239 375.453 10.5006 377.167 8.78658C378.881 7.07259 381.205 6.1076 383.629 6.10289C386.053 6.1076 388.376 7.07259 390.09 8.78658C391.804 10.5006 392.769 12.8239 392.774 15.2478C392.774 20.1516 388.664 24.391 383.629 24.391ZM376.472 100.598V34.3321H390.784V100.598H376.472ZM407.351 100.598V3.84961H421.665V100.598H407.351ZM514.572 34.3321H529.68L508.872 100.598H494.823L481.04 55.9351L467.125 100.598H453.076L432.267 34.3321H447.376L460.233 80.0568L474.148 34.3321H487.8L501.583 80.0568L514.572 34.3321ZM547.44 24.3928C542.404 24.3928 538.295 20.1516 538.295 15.2478C538.299 12.8239 539.264 10.5006 540.978 8.78658C542.692 7.07259 545.016 6.1076 547.44 6.10289C549.863 6.1076 552.187 7.07259 553.901 8.78658C555.615 10.5006 556.58 12.8239 556.584 15.2478C556.584 20.1516 552.475 24.391 547.44 24.391M540.282 100.596V34.3321H554.597V100.598L540.282 100.596ZM606.019 32.6061C620.863 32.6061 631.466 42.6791 631.466 59.9091V100.596H617.152V61.368C617.152 51.2968 611.321 45.9958 602.309 45.9958C592.899 45.9958 585.476 51.5604 585.476 65.0801V100.598H571.162V34.3321H585.476V42.8145C589.851 35.921 597.006 32.6061 606.019 32.6061ZM699.323 7.82536H713.637V100.598H699.323V91.056C694.288 98.0813 686.468 102.322 676.131 102.322C658.105 102.322 643.128 87.0803 643.128 67.4652C643.128 47.7182 658.105 32.6097 676.13 32.6097C686.468 32.6097 694.288 36.849 699.323 43.7425V7.82536ZM678.383 88.671C690.31 88.671 699.323 79.7914 699.323 67.4652C699.323 55.1389 690.31 46.2594 678.383 46.2594C666.456 46.2594 657.442 55.1389 657.442 67.4652C657.442 79.7914 666.456 88.671 678.383 88.671ZM761.614 102.322C741.601 102.322 726.624 87.0803 726.624 67.4652C726.624 47.7182 741.601 32.6097 761.614 32.6097C774.602 32.6097 785.867 39.3677 791.17 49.7061L778.843 56.8632C775.928 50.6341 769.433 46.6566 761.482 46.6566C749.818 46.6566 740.939 55.5379 740.939 67.4652C740.939 79.3924 749.818 88.2737 761.482 88.2737C769.433 88.2737 775.928 84.1644 779.109 78.0672L791.435 85.0924C785.867 95.5626 774.602 102.322 761.614 102.322ZM815.024 52.622C815.024 64.6811 850.676 57.3922 850.676 81.9111C850.676 95.1636 839.146 102.322 824.832 102.322C811.579 102.322 802.037 96.357 797.796 86.8149L810.122 79.6578C812.242 85.6232 817.543 89.2 824.832 89.2C831.194 89.2 836.098 87.0803 836.098 81.7793C836.098 69.9839 800.446 76.6101 800.446 52.8874C800.446 40.4276 811.182 32.6097 824.7 32.6097C835.567 32.6097 844.579 37.6453 849.219 46.393L837.16 53.151C834.773 47.9836 830.135 45.5985 824.7 45.5985C819.531 45.5985 815.024 47.85 815.024 52.622ZM876.123 52.622C876.123 64.6811 911.775 57.3922 911.775 81.9111C911.775 95.1636 900.245 102.322 885.93 102.322C872.678 102.322 863.134 96.357 858.893 86.8149L871.219 79.6578C873.339 85.6232 878.642 89.2 885.93 89.2C892.291 89.2 897.195 87.0803 897.195 81.7793C897.195 69.9839 861.545 76.6101 861.545 52.8874C861.545 40.4276 872.279 32.6097 885.799 32.6097C896.664 32.6097 905.677 37.6453 910.318 46.393L898.257 53.151C895.87 47.9836 891.231 45.5985 885.799 45.5985C880.629 45.5985 876.123 47.85 876.123 52.622Z" fill="#2D3748"/>
</g>
<defs>
<linearGradient id="paint0_linear_972_997" x1="-522.88" y1="3616.52" x2="15743" y2="12995.3" gradientUnits="userSpaceOnUse">
<stop stop-color="#2298BD"/>
<stop offset="1" stop-color="#0ED7B5"/>
</linearGradient>
<clipPath id="clip0_972_997">
<rect width="912" height="114" fill="white" transform="translate(0.320312 0.5)"/>
</clipPath>
</defs>
</svg>
