<svg width="537" height="115" viewBox="0 0 537 115" fill="none" xmlns="http://www.w3.org/2000/svg">
<g clip-path="url(#clip0_972_899)">
<path d="M156.412 79.6167C152.511 79.6331 148.632 79.0294 144.921 77.8283C141.362 76.6717 138.091 74.7674 135.328 72.2433L140.348 63.754C142.904 65.5166 145.632 67.0137 148.491 68.2219C150.884 69.2638 153.467 69.797 156.076 69.7876C157.858 69.7876 159.311 69.4519 160.314 68.7804C161.318 68.2219 161.764 67.2179 161.764 65.988C161.764 64.871 161.209 63.754 159.868 63.0825C157.773 62.0765 155.563 61.3265 153.288 60.8485L145.476 58.2799C143.359 57.3857 141.687 56.4914 140.347 55.4874C139.092 54.6558 138.09 53.4956 137.449 52.1333C136.843 50.7226 136.539 49.2006 136.558 47.6653C136.526 45.4952 136.98 43.3453 137.887 41.3735C138.794 39.4018 140.131 37.6581 141.8 36.2706C143.358 34.9318 145.366 33.9236 147.597 33.1434C149.831 32.3611 152.284 32.0254 154.849 32.0254C158.31 32.0254 161.541 32.4709 164.552 33.3651C167.567 34.3723 170.465 36.0478 173.254 38.5045L167.79 46.8841C165.631 45.3376 163.311 44.0273 160.872 42.9756C158.972 42.1501 156.921 41.7298 154.849 41.7415C153.401 41.7415 152.061 41.9685 151.057 42.6399C149.94 43.1984 149.494 44.2014 149.494 45.5453C149.494 46.8809 150.053 47.7783 151.168 48.4466C152.284 49.118 154.515 49.7895 157.526 50.5708C160.322 51.2769 163.078 52.1347 165.782 53.1405C168.01 54.0316 169.798 55.0387 171.246 56.0459C172.596 57.0417 173.672 58.3625 174.374 59.8858C175.077 61.409 175.382 63.085 175.263 64.758C175.263 69.3389 173.589 72.9116 170.13 75.5943C166.786 78.2769 162.322 79.6167 156.412 79.6167ZM211.626 76.3755C209.481 77.2559 207.284 78.0034 205.047 78.6137C202.591 79.281 200.139 79.7297 197.572 79.7297C195.787 79.7297 194.225 79.5069 192.663 79.0582C191.145 78.6133 189.74 77.8519 188.538 76.8242C187.421 75.93 186.53 74.5903 185.858 73.1375C185.104 71.334 184.725 69.3955 184.746 67.4407V43.4212H178.941V32.9206H184.851V18.2795H198.682V32.8066H208.053V43.416H198.682V62.6349C198.682 64.0876 199.018 65.2046 199.799 65.9859C200.58 66.5444 201.584 66.8759 202.701 66.8759C203.815 66.8759 204.929 66.7671 205.935 66.3216C207.049 65.9859 208.053 65.6501 208.834 65.2046L211.513 76.3735H211.622L211.626 76.3755ZM237.728 79.6167C234.179 79.678 230.652 79.0327 227.354 77.7185C224.483 76.5802 221.885 74.8469 219.732 72.6325C217.578 70.4182 215.918 67.773 214.86 64.871C212.668 59.0368 212.668 52.6053 214.86 46.7711C215.918 43.8691 217.578 41.2239 219.732 39.0095C221.885 36.7952 224.483 35.0619 227.354 33.9236C230.37 32.6979 233.823 32.0254 237.729 32.0254C241.087 31.8677 244.438 32.4349 247.557 33.6882C250.675 34.9416 253.487 36.8518 255.801 39.2889C257.918 41.41 259.48 43.9797 260.597 46.7711C262.881 52.6259 262.881 59.1249 260.597 64.9797C259.533 67.8479 257.882 70.4626 255.75 72.6566C253.618 74.8505 251.052 76.5756 248.215 77.7216C244.882 79.0507 241.316 79.6962 237.728 79.6198V79.6167ZM227.69 55.9329C227.69 59.5098 228.581 62.4111 230.479 64.5352C232.487 66.7692 234.941 67.8862 237.842 67.8862C239.225 67.9124 240.596 67.6244 241.852 67.044C243.107 66.4635 244.214 65.6058 245.09 64.5352C246.015 63.4031 246.733 62.1169 247.211 60.7356C247.767 59.2829 247.989 57.6084 247.989 55.9329C247.989 52.2462 246.985 49.3408 245.091 47.2208C244.216 46.1493 243.108 45.2905 241.852 44.7093C240.596 44.1281 239.225 43.8397 237.841 43.8657C236.461 43.8629 235.097 44.1616 233.844 44.741C232.592 45.3203 231.481 46.1663 230.589 47.2198C229.698 48.3368 228.917 49.4538 228.362 51.0163C227.858 52.6043 227.631 54.268 227.69 55.9329ZM298.3 44.8729C294.953 44.8729 291.829 45.4303 289.04 46.5473C286.583 47.3774 284.492 49.037 283.127 51.2412V78.8354H269.183V32.9196H282.014V42.0814C283.575 38.9532 285.583 36.4965 288.146 34.8178C290.602 33.0294 293.168 32.1352 295.957 32.0254H297.407L298.297 32.1352V44.8739L298.3 44.8729ZM304.433 85.6493C306.373 86.324 308.404 86.7002 310.456 86.7652C312.132 86.7652 313.471 86.2057 314.474 85.0866C315.366 83.9738 316.147 81.7398 316.928 78.8344L299.524 32.9185H313.913L324.513 66.7682L333.77 32.9185H346.823L329.309 86.2088C326.571 95.2556 317.359 100.694 308.117 98.7217C306.851 98.4887 305.615 98.114 304.433 97.6047V85.6493ZM379.84 79.6188C376.379 79.6188 373.262 78.9442 370.692 77.3817C368.085 75.9451 365.924 73.8185 364.446 71.2351V78.8354H352.288V14.9327H366.341V40.4059C367.837 37.783 370.018 35.617 372.652 34.1405C375.285 32.6639 378.271 31.9327 381.289 32.0254C384.191 32.0254 386.867 32.5839 389.323 33.9236C391.776 35.0406 393.784 36.8291 395.678 38.9532C398.385 42.7164 400.161 47.0682 400.86 51.6512C401.559 56.2342 401.16 60.9175 399.697 65.3165C398.644 68.105 397.095 70.6796 395.124 72.9158C393.188 75.0422 390.827 76.7376 388.194 77.8921C385.561 79.0465 382.714 79.6341 379.839 79.6167L379.84 79.6188ZM375.934 67.8841C378.144 67.8882 380.3 67.2011 382.1 65.9191C383.9 64.6371 385.254 62.8243 385.972 60.7345C386.777 58.5214 387.005 56.1397 386.635 53.814C386.264 51.4883 385.308 49.2952 383.855 47.4415C382.996 46.3079 381.882 45.3931 380.602 44.7715C379.323 44.15 377.915 43.8393 376.493 43.8646C374.376 43.8646 372.368 44.649 370.469 46.1028C368.635 47.6919 367.185 49.6776 366.231 51.9095V61.5189C367.112 63.3806 368.5 64.9556 370.237 66.0625C371.974 67.1694 373.988 67.7632 376.047 67.7753L375.934 67.8841ZM408.06 14.9316H422.004V62.4069C422.004 65.9838 423.456 67.6593 426.467 67.6593C428.06 67.6628 429.629 67.2795 431.041 66.5423L432.936 76.933C429.029 78.645 424.819 79.5562 420.554 79.6125C416.539 79.6125 413.415 78.4955 411.298 76.4843C409.064 74.2503 407.95 71.3449 407.95 67.3225V14.9348L408.06 14.9316ZM459.262 79.6157C455.712 79.6771 452.185 79.0318 448.887 77.7174C445.998 76.5861 443.382 74.8566 441.209 72.6423C439.036 70.4281 437.356 67.7793 436.28 64.8699C434.696 60.5586 434.296 55.9019 435.12 51.3835C435.944 46.8651 437.963 42.6497 440.966 39.1749C443.199 36.9267 445.854 35.1417 448.779 33.9226C451.786 32.6968 455.247 32.0243 459.149 32.0243C462.506 31.8665 465.858 32.4336 468.977 33.687C472.095 34.9403 474.907 36.8506 477.221 39.2879C479.451 41.4089 480.901 43.9786 482.017 46.7701C483.662 51.0717 484.095 55.7423 483.269 60.2731C482.443 64.8038 480.389 69.021 477.331 72.465C475.15 74.7725 472.482 76.5665 469.523 77.7174C466.225 79.0318 462.698 79.6771 459.148 79.6157H459.262ZM449.111 55.9319C449.111 59.5088 450.002 62.41 451.899 64.5342C453.906 66.7682 456.361 67.8852 459.262 67.8852C460.644 67.9032 462.012 67.6115 463.266 67.0317C464.521 66.4518 465.629 65.5985 466.511 64.5342C467.435 63.402 468.153 62.1158 468.632 60.7345C469.19 59.2818 469.413 57.6074 469.413 55.9319C469.413 52.2452 468.409 49.3398 466.511 47.2198C465.635 46.1484 464.528 45.2897 463.272 44.7085C462.016 44.1273 460.645 43.8388 459.262 43.8646C457.882 43.8621 456.518 44.161 455.266 44.7404C454.014 45.3197 452.903 46.1655 452.012 47.2187C451.122 48.3357 450.337 49.4527 449.779 51.0153C449.223 52.5809 449.109 54.1424 449.109 55.9309M521.502 78.8354L509.569 60.29L504.66 65.4295V78.8354H490.716V14.9327H504.66V51.9105L520.166 32.9196H535.001L518.494 52.6918L536.344 78.8323H521.506L521.502 78.8354Z" fill="#141A2F"/>
<path d="M92.591 0.5L92.4874 0.609817C95.1701 0.609817 96.8121 2.68796 96.9031 5.23257L96.9073 5.45743V91.9615C96.9073 94.6316 95.3489 96.2652 92.8357 96.3625L92.5972 96.3667H34.4572L18.5412 113.559V96.2569H5.72086C3.14384 96.2569 0.986203 94.7017 0.860698 92.1884L0.855469 91.9583V5.34657C0.855469 2.77686 2.94407 0.622367 5.60059 0.505229L5.83068 0.5H92.591ZM62.9761 18.1303H18.5401V79.8398H57.6724C60.6563 79.8398 63.5314 79.2876 66.1827 78.6266C68.6614 78.1152 70.8473 77.0212 72.8344 75.8059L73.257 75.5444C75.108 74.439 76.6634 72.9012 77.7898 71.0629L78.0094 70.6926H77.8965C78.9999 68.7117 79.5542 66.3962 79.5542 63.6414C79.5542 59.3449 78.5575 55.926 76.5672 53.281C74.4702 50.7499 71.7059 48.9845 68.1699 47.9951C70.9767 46.7986 73.3081 44.7059 74.7996 42.0441C76.2377 39.3981 77.0127 36.6443 77.0127 33.7807C77.0613 29.8857 75.7297 26.0991 73.2538 23.0919C72.0375 21.6559 70.4896 20.4458 68.834 19.5621C67.1815 18.6386 65.4349 18.192 63.4132 18.1365L62.9761 18.1303ZM56.6245 52.62C57.9025 52.62 58.8616 53.2433 59.714 54.2881C60.5029 55.3776 60.9142 56.6949 60.8854 58.0397C60.8854 59.6022 60.352 60.8531 59.5017 61.6887C58.6116 62.4627 57.5375 62.9657 56.3651 63.0337L56.0932 63.0421H34.475V52.62H56.6245ZM54.8151 31.7726C55.8319 31.7823 56.8126 32.1513 57.5835 32.8143C58.3303 33.5443 58.7549 34.6916 58.7549 36.2542C58.7549 37.9276 58.3763 39.2297 57.526 39.8938L57.3712 40.0057C56.5837 40.5841 55.6142 41.0725 54.6352 41.1436L54.3905 41.1541H34.4719V31.7716L54.8151 31.7726Z" fill="#0AB3AF"/>
</g>
<defs>
<clipPath id="clip0_972_899">
<rect width="535.486" height="114" fill="white" transform="translate(0.855469 0.5)"/>
</clipPath>
</defs>
</svg>
