<svg width="649" height="115" viewBox="0 0 649 115" fill="none" xmlns="http://www.w3.org/2000/svg">
<g clip-path="url(#clip0_972_993)">
<path d="M176.192 37.3976C169.156 37.3976 163.57 39.9841 160.156 45.3649V18.0429H148.984V90.4798H160.156V62.7499C160.156 52.1948 165.949 47.8488 173.292 47.8488C180.328 47.8488 184.882 51.9858 184.882 59.8505V90.481H196.051V58.713C196.051 45.261 187.779 37.3976 176.192 37.3976ZM229.912 37.3963C245.327 37.3963 255.878 49.8122 255.878 64.712C255.878 65.8773 255.761 67.0984 255.615 68.2485L255.463 69.3695H214.291C216.049 77.4407 222.568 81.5802 230.844 81.5802C236.739 81.5802 241.237 79.0595 243.799 75.7028L244.188 75.1645L253.393 80.5453C248.637 87.5816 240.875 91.8237 230.738 91.8237C213.671 91.8237 202.601 80.1336 202.601 64.6094C202.601 49.2941 213.672 37.395 229.91 37.395M229.807 47.5347C221.708 47.5347 216.118 52.1745 214.353 59.492L214.184 60.2596H244.597C243.046 51.3626 236.531 47.5347 229.807 47.5347ZM285.678 37.3938C293.398 37.3938 299.315 40.4236 303.258 45.3953L303.782 46.0856V38.7402H314.954V90.481H303.782V83.0318C299.852 88.5139 293.749 91.825 285.678 91.825C271.61 91.825 259.92 79.9234 259.92 64.6106C259.92 49.1928 271.607 37.3963 285.678 37.3963M287.436 48.0553C278.129 48.0553 271.092 54.9878 271.092 64.6106C271.092 73.9662 277.742 80.7834 286.666 81.1533L287.436 81.171C296.746 81.1672 303.782 74.2335 303.782 64.6106C303.782 54.9878 296.747 48.0553 287.436 48.0553ZM377.528 18.0442V90.481H366.356V83.0318C362.425 88.5139 356.323 91.825 348.251 91.825C334.184 91.825 322.494 79.9234 322.494 64.6106C322.494 49.1928 334.184 37.3963 348.251 37.3963C355.972 37.3963 361.891 40.4262 365.831 45.3978L366.356 46.0882V18.0429L377.528 18.0442ZM350.013 48.0553C340.702 48.0553 333.666 54.9878 333.666 64.6106C333.666 73.9662 340.316 80.7834 349.242 81.1533L350.013 81.171C359.321 81.1672 366.356 74.2335 366.356 64.6106C366.356 54.9878 359.321 48.0553 350.013 48.0553ZM387.963 90.481H399.138V14.9434H387.963V90.481ZM433.94 37.3976C449.355 37.3976 459.907 49.8147 459.907 64.7145C459.907 65.8798 459.789 67.1009 459.643 68.251L459.491 69.372H418.319C420.078 77.4432 426.596 81.5827 434.869 81.5827C440.769 81.5827 445.263 79.062 447.827 75.7054L448.214 75.167L457.423 80.5478C452.661 87.5842 444.903 91.8262 434.766 91.8262C417.7 91.8262 406.631 80.1362 406.631 64.6119C406.631 49.2966 417.7 37.3976 433.94 37.3976ZM433.839 47.5385C425.738 47.5385 420.149 52.1783 418.383 59.4958L418.213 60.2634H448.628C447.075 51.3664 440.561 47.5385 433.837 47.5385M475.161 53.0219C475.161 49.3004 478.68 47.5385 482.714 47.5385C486.958 47.5385 490.575 49.4005 492.44 53.4361L501.854 48.1592C498.231 41.3293 491.196 37.3976 482.714 37.3976C472.163 37.3976 463.783 43.5016 463.783 53.2309C463.783 62.6587 470.995 65.9482 478.076 68.118L480.338 68.7843L483.248 69.6165L484.619 70.0332C488.63 71.2999 491.611 72.7743 491.611 75.7877C491.611 79.9272 487.782 81.5827 482.817 81.5827C477.128 81.5827 472.991 78.7897 471.336 74.1322L461.713 79.7182C465.024 87.1687 472.475 91.8262 482.816 91.8262C493.988 91.8262 502.991 86.2402 502.991 75.8916C502.991 66.6626 496.522 63.2059 489.822 61.0462L488.331 60.5852L483.274 59.1513L481.938 58.746C478.252 57.5832 475.483 56.2114 475.187 53.5121L475.161 53.0219ZM517.126 53.0219C517.126 49.3004 520.647 47.5385 524.68 47.5385C528.919 47.5385 532.541 49.4005 534.402 53.4361L543.816 48.1592C540.197 41.3293 533.162 37.3976 524.68 37.3976C514.129 37.3976 505.749 43.5016 505.749 53.2309C505.749 62.6587 512.961 65.9482 520.042 68.118L522.305 68.7843L525.214 69.6165L526.585 70.0332C530.596 71.2999 533.577 72.7743 533.577 75.7877C533.577 79.9272 529.748 81.5827 524.783 81.5827C519.094 81.5827 514.954 78.7897 513.299 74.1322L503.679 79.7182C506.99 87.1687 514.437 91.8262 524.782 91.8262C535.954 91.8262 544.955 86.2402 544.955 75.8916C544.955 66.6626 538.486 63.2059 531.785 61.0462L530.295 60.5852L525.24 59.1513L523.904 58.746L522.643 58.3254C519.601 57.2424 517.415 55.8934 517.152 53.5121L517.126 53.0219ZM627.28 18.4938C632.829 18.4937 638.165 20.6317 642.179 24.4636C646.193 28.2954 648.576 33.5264 648.833 39.0696L648.855 40.0766V76.041C648.857 81.5896 646.72 86.9252 642.89 90.9396C639.059 94.9539 633.83 97.3382 628.287 97.5972L627.28 97.62H591.326C585.778 97.6191 580.444 95.4814 576.431 91.6507C572.419 87.8201 570.036 82.5909 569.777 77.0493L569.755 76.041V40.0728C569.754 34.5251 571.89 29.1903 575.719 25.1763C579.549 21.1624 584.777 18.7778 590.319 18.5179L591.326 18.4938H627.28ZM627.28 25.686L591.326 25.6898C583.384 25.691 576.944 32.1295 576.943 40.0728V76.041C576.944 83.9843 583.383 90.4228 591.326 90.4253H627.28C635.222 90.4228 641.662 83.9843 641.663 76.041V40.0766C641.664 36.2611 640.149 32.6018 637.451 29.9032C634.754 27.2046 631.096 25.6876 627.28 25.686ZM595.795 42.5934V65.7557C595.795 69.1795 597.61 71.7458 602.342 71.7458C606.849 71.7458 608.706 69.4176 608.873 66.2383L608.886 65.7557V42.596H615.832V66.308C615.832 73.6673 610.458 78.245 603.086 78.5326L602.342 78.5478C594.888 78.544 589.274 74.2056 588.919 67.035L588.902 66.3092V42.5934H595.795ZM630.042 42.5934V77.8384H623.094V42.5934H630.042Z" fill="#111827"/>
<path d="M22.7723 70.9726L91.9589 47.8699C90.5783 39.2211 89.5916 33.4438 88.4503 29.0345C87.2216 24.2921 86.2463 23.0242 85.8625 22.5847C84.5287 21.0578 82.8679 19.8511 81.0036 19.0545C80.4652 18.8239 78.9553 18.2881 74.0711 18.582C68.9031 18.8949 62.1188 19.95 51.3762 21.6524C40.6361 23.3535 33.8557 24.4479 28.8473 25.7463C24.1087 26.9749 22.8357 27.9541 22.3961 28.3366C20.8722 29.6723 19.6672 31.3326 18.8697 33.1955C18.6392 33.7351 18.1047 35.245 18.3985 40.1331C18.7101 45.3011 19.7665 52.0879 21.4677 62.8317C21.9427 65.8439 22.3721 68.5381 22.7723 70.9726Z" fill="url(#paint0_linear_972_993)"/>
<path d="M3.69722 65.6456C0.407684 44.8608 -1.24025 34.4691 2.32542 26.1256C4.18563 21.775 7.00086 17.8987 10.5626 14.7838C17.3924 8.81783 27.7816 7.17369 48.5587 3.88036C69.3435 0.584493 79.7314 -1.05964 88.0787 2.50603C92.4286 4.365 96.3035 7.18048 99.4154 10.7432C105.383 17.5768 107.028 27.9698 110.316 48.7558C113.61 69.5418 115.254 79.9374 111.688 88.2771C109.831 92.6282 107.016 96.5047 103.455 99.6188C96.6249 105.589 86.2319 107.231 65.451 110.525C44.6739 113.818 34.2822 115.462 25.9424 111.897C21.5928 110.037 17.718 107.222 14.6057 103.659C8.63848 96.8258 6.99308 86.4328 3.69975 65.6468L3.69722 65.6456ZM40.3495 102.557C45.9152 102.221 53.082 101.097 63.6903 99.4162C74.3025 97.7366 81.4579 96.589 86.8602 95.1893C92.0877 93.8314 94.4982 92.509 96.0537 91.1486C98.3424 89.1461 100.151 86.6543 101.346 83.8577C102.162 81.9577 102.676 79.2559 102.349 73.8624C102.012 68.2967 100.889 61.1274 99.2077 50.5152C97.5268 39.9031 96.383 32.7388 94.9834 27.3416C93.6268 22.1102 92.3005 19.6998 90.9427 18.143C88.9416 15.8539 86.451 14.0443 83.6555 12.8484C81.7555 12.0326 79.055 11.5184 73.6616 11.8452C68.0958 12.1821 60.9315 13.3056 50.3207 14.9865C39.7123 16.6686 32.5519 17.8137 27.1533 19.2134C21.922 20.5712 19.5153 21.8974 17.9599 23.254C15.6702 25.2562 13.8606 27.7481 12.6652 30.545C11.8533 32.445 11.339 35.1455 11.6646 40.5402C12.0015 46.1085 13.1212 53.2753 14.8059 63.8874C16.4855 74.4996 17.6305 81.6626 19.0302 87.0611C20.3881 92.2924 21.7092 94.7029 23.0709 96.2596C25.072 98.5488 27.5626 100.358 30.358 101.554C32.258 102.37 34.956 102.884 40.3533 102.557H40.3495Z" fill="url(#paint1_linear_972_993)"/>
</g>
<defs>
<linearGradient id="paint0_linear_972_993" x1="2660.08" y1="396.432" x2="3596.19" y2="6245.22" gradientUnits="userSpaceOnUse">
<stop stop-color="#66E3FF"/>
<stop offset="1" stop-color="#7064F9"/>
</linearGradient>
<linearGradient id="paint1_linear_972_993" x1="4441.97" y1="0.499956" x2="6242.22" y2="11247.8" gradientUnits="userSpaceOnUse">
<stop stop-color="#66E3FF"/>
<stop offset="1" stop-color="#7064F9"/>
</linearGradient>
<clipPath id="clip0_972_993">
<rect width="648.533" height="114" fill="white" transform="translate(0.320312 0.5)"/>
</clipPath>
</defs>
</svg>
