<svg width="186" height="115" viewBox="0 0 186 115" fill="none" xmlns="http://www.w3.org/2000/svg">
<g clip-path="url(#clip0_972_918)">
<path d="M91.8916 114.172C91.2624 114.172 90.675 114.004 90.1293 113.71L84.5487 110.396C83.7094 109.934 84.1291 109.766 84.381 109.682C85.5138 109.305 85.7236 109.221 86.8985 108.55C87.0244 108.465 87.1925 108.508 87.3182 108.591L91.5982 111.151C91.766 111.235 91.9758 111.235 92.1014 111.151L108.844 101.458C109.012 101.374 109.096 101.206 109.096 100.997V81.6529C109.096 81.4427 109.012 81.2753 108.844 81.1911L92.1014 71.5403C91.9337 71.4561 91.7239 71.4561 91.5982 71.5403L74.8558 81.1911C74.6881 81.2749 74.6039 81.4848 74.6039 81.6525V100.996C74.6039 101.164 74.6881 101.374 74.8558 101.458L79.4296 104.101C81.9053 105.36 83.4578 103.892 83.4578 102.423V83.3309C83.4578 83.0793 83.6676 82.8274 83.9613 82.8274H86.1012C86.3531 82.8274 86.6047 83.0372 86.6047 83.3309V102.423C86.6047 105.738 84.8004 107.668 81.6534 107.668C80.6884 107.668 79.9332 107.668 77.793 106.619L73.3873 104.101C72.2963 103.472 71.625 102.297 71.625 101.038V81.6946C71.625 80.4359 72.2963 79.2607 73.3873 78.6315L90.1293 68.9386C91.1785 68.3512 92.6054 68.3512 93.6542 68.9386L110.396 78.6315C111.487 79.2607 112.159 80.4359 112.159 81.6946V101.038C112.159 102.297 111.487 103.472 110.396 104.101L93.6542 113.794C93.1085 114.046 92.479 114.172 91.8916 114.172ZM97.0532 100.871C89.7103 100.871 88.1997 97.5138 88.1997 94.6605C88.1997 94.4085 88.4095 94.1569 88.7032 94.1569H90.8852C91.1368 94.1569 91.3466 94.3247 91.3466 94.5766C91.6825 96.8004 92.6475 97.8914 97.0953 97.8914C100.62 97.8914 102.131 97.0941 102.131 95.2058C102.131 94.1148 101.711 93.3179 96.2141 92.7722C91.6403 92.3104 88.7871 91.3037 88.7871 87.6531C88.7871 84.2542 91.6407 82.24 96.424 82.24C101.795 82.24 104.438 84.0865 104.774 88.1142C104.774 88.2403 104.732 88.3663 104.648 88.4922C104.564 88.576 104.438 88.6599 104.312 88.6599H102.131C101.921 88.6599 101.711 88.4922 101.669 88.2823C101.166 85.9747 99.8647 85.2192 96.424 85.2192C92.5636 85.2192 92.1018 86.5621 92.1018 87.5689C92.1018 88.7859 92.6475 89.1635 97.8504 89.8347C103.012 90.5064 105.446 91.4714 105.446 95.0798C105.403 98.7725 102.382 100.871 97.0532 100.871Z" fill="#539E43"/>
<path d="M39.9446 38.5166C39.9446 37.7614 39.525 37.0476 38.8537 36.6701L21.0624 26.4318C20.7683 26.2637 20.4329 26.1799 20.0974 26.1378H19.9293C19.5938 26.1378 19.258 26.2637 18.9643 26.4318L1.17302 36.6701C0.501363 37.0476 0.0820312 37.761 0.0820312 38.5166L0.124146 66.0425C0.124146 66.4201 0.333993 66.7977 0.669458 66.9658C1.00529 67.1756 1.42462 67.1756 1.71869 66.9658L12.2927 60.9234C12.964 60.5458 13.3837 59.8324 13.3837 59.0772V46.1952C13.3837 45.4401 13.8031 44.7267 14.4747 44.3491L18.9643 41.7474C19.3001 41.5376 19.6777 41.4533 20.0553 41.4533C20.4329 41.4533 20.8104 41.5376 21.1045 41.7474L25.5941 44.3491C26.2657 44.7267 26.6851 45.4397 26.6851 46.1952V59.0772C26.6851 59.8324 27.1048 60.5458 27.7761 60.9234L38.3501 66.9658C38.5135 67.0686 38.7026 67.1232 38.8956 67.1232C39.0886 67.1232 39.2777 67.0686 39.4411 66.9658C39.7769 66.7977 39.9868 66.4201 39.9868 66.0425L39.9446 38.5166ZM125.46 0.626072C125.125 0.457976 124.705 0.457976 124.411 0.626072C124.076 0.835919 123.866 1.17138 123.866 1.54896V28.8237C123.866 29.0753 123.74 29.3269 123.488 29.495C123.236 29.6206 122.985 29.6206 122.733 29.495L118.285 26.9354C117.959 26.7498 117.59 26.6523 117.215 26.6523C116.84 26.6523 116.471 26.7498 116.145 26.9354L98.3537 37.2157C97.6824 37.5933 97.2627 38.3067 97.2627 39.0619V59.5804C97.2627 60.3356 97.6824 61.0494 98.3537 61.4269L116.145 71.7073C116.471 71.8928 116.84 71.9904 117.215 71.9904C117.59 71.9904 117.959 71.8928 118.285 71.7073L136.076 61.4269C136.748 61.0494 137.167 60.336 137.167 59.5804V8.43072C137.167 7.63344 136.748 6.9204 136.076 6.54246L125.46 0.626072ZM123.824 52.825C123.824 53.0349 123.74 53.2026 123.572 53.2865L117.488 56.811C117.403 56.8526 117.31 56.8742 117.215 56.8742C117.121 56.8742 117.027 56.8526 116.942 56.811L110.858 53.2865C110.69 53.2026 110.606 52.9928 110.606 52.825V45.7755C110.606 45.5657 110.69 45.398 110.858 45.3141L116.942 41.7892C117.027 41.7476 117.121 41.726 117.215 41.726C117.31 41.726 117.403 41.7476 117.488 41.7892L123.572 45.3141C123.74 45.3976 123.824 45.6078 123.824 45.7755V52.825ZM184.667 45.6078C185.338 45.2302 185.716 44.5168 185.716 43.7613V38.7682C185.716 38.013 185.296 37.2996 184.667 36.922L167.001 26.6838C166.675 26.4982 166.306 26.4007 165.931 26.4007C165.556 26.4007 165.187 26.4982 164.861 26.6838L147.07 36.9638C146.398 37.3413 145.979 38.0548 145.979 38.8099V59.3288C145.979 60.084 146.399 60.7974 147.07 61.175L164.735 71.2455C165.407 71.6231 166.204 71.6231 166.834 71.2455L177.533 65.2877C177.869 65.1196 178.079 64.742 178.079 64.3644C178.079 63.9869 177.869 63.6093 177.533 63.4412L159.658 53.1609C159.322 52.951 159.112 52.6155 159.112 52.238V45.818C159.112 45.4404 159.322 45.0629 159.658 44.8948L165.239 41.7057C165.402 41.6028 165.591 41.5482 165.784 41.5482C165.977 41.5482 166.166 41.6028 166.33 41.7057L171.911 44.8948C172.246 45.1046 172.456 45.4401 172.456 45.818V50.8533C172.456 51.2308 172.666 51.6084 173.002 51.7761C173.165 51.879 173.354 51.9336 173.547 51.9336C173.74 51.9336 173.929 51.879 174.093 51.7761L184.667 45.6078Z" fill="#333333"/>
<path d="M165.659 44.643C165.721 44.602 165.794 44.5801 165.869 44.5801C165.944 44.5801 166.017 44.602 166.079 44.643L169.478 46.6152C169.603 46.6994 169.687 46.825 169.687 46.9927V50.9374C169.687 51.1051 169.604 51.2311 169.478 51.3149L166.079 53.2871C166.017 53.3281 165.944 53.35 165.869 53.35C165.794 53.35 165.721 53.3281 165.659 53.2871L162.261 51.3149C162.135 51.2311 162.051 51.1051 162.051 50.9374V46.9931C162.051 46.825 162.134 46.699 162.261 46.6155L165.659 44.643Z" fill="#539E43"/>
<path d="M69.6942 26.7674C69.3681 26.5819 68.9994 26.4844 68.6243 26.4844C68.2491 26.4844 67.8804 26.5819 67.5544 26.7674L49.8891 36.9631C49.2174 37.3407 48.8398 38.0541 48.8398 38.8093V59.2443C48.8398 59.9995 49.2595 60.7129 49.8891 61.0905L67.5544 71.2869C67.8804 71.4724 68.2491 71.57 68.6243 71.57C68.9994 71.57 69.3681 71.4724 69.6942 71.2869L87.3598 61.0905C88.0311 60.7129 88.4091 59.9995 88.4091 59.2443V38.8096C88.4091 38.0545 87.989 37.3411 87.3598 36.9635L69.6942 26.7674Z" fill="url(#paint0_linear_972_918)"/>
<mask id="mask0_972_918" style="mask-type:luminance" maskUnits="userSpaceOnUse" x="48" y="26" width="41" height="46">
<path d="M69.6942 26.7674C69.3681 26.5819 68.9994 26.4844 68.6243 26.4844C68.2491 26.4844 67.8804 26.5819 67.5544 26.7674L49.8891 36.9631C49.2174 37.3407 48.8398 38.0541 48.8398 38.8093V59.2443C48.8398 59.9995 49.2595 60.7129 49.8891 61.0905L67.5544 71.2869C67.8804 71.4724 68.2491 71.57 68.6243 71.57C68.9994 71.57 69.3681 71.4724 69.6942 71.2869L87.3598 61.0905C88.0311 60.7129 88.4091 59.9995 88.4091 59.2443V38.8096C88.4091 38.0545 87.989 37.3411 87.3598 36.9635L69.6942 26.7674Z" fill="white"/>
</mask>
<g mask="url(#mask0_972_918)">
<path d="M87.4029 36.9626L69.6538 26.7665C69.4794 26.6784 69.2966 26.6081 69.1081 26.5566L49.2188 60.6288C49.3836 60.8299 49.5826 61.0004 49.8065 61.1324L67.5557 71.3289C68.0592 71.6226 68.6467 71.7065 69.192 71.5384L87.8647 37.3826C87.7388 37.2149 87.5707 37.0882 87.4029 36.9626Z" fill="url(#paint1_linear_972_918)"/>
</g>
<mask id="mask1_972_918" style="mask-type:luminance" maskUnits="userSpaceOnUse" x="48" y="26" width="41" height="46">
<path d="M69.6942 26.7674C69.3681 26.5819 68.9994 26.4844 68.6243 26.4844C68.2491 26.4844 67.8804 26.5819 67.5544 26.7674L49.8891 36.9631C49.2174 37.3407 48.8398 38.0541 48.8398 38.8093V59.2443C48.8398 59.9995 49.2595 60.7129 49.8891 61.0905L67.5544 71.2869C67.8804 71.4724 68.2491 71.57 68.6243 71.57C68.9994 71.57 69.3681 71.4724 69.6942 71.2869L87.3598 61.0905C88.0311 60.7129 88.4091 59.9995 88.4091 59.2443V38.8096C88.4091 38.0545 87.989 37.3411 87.3598 36.9635L69.6942 26.7674Z" fill="white"/>
</mask>
<g mask="url(#mask1_972_918)">
<path fill-rule="evenodd" clip-rule="evenodd" d="M87.4417 61.0921C87.9453 60.7984 88.3229 60.2948 88.491 59.7495L69.0206 26.5167C68.517 26.4328 67.9713 26.4746 67.5102 26.7683L49.8867 36.923L68.8946 71.5823C69.1711 71.5373 69.4396 71.4526 69.6919 71.3307L87.4417 61.0921Z" fill="url(#paint2_linear_972_918)"/>
<path fill-rule="evenodd" clip-rule="evenodd" d="M87.4422 61.0917L69.7348 71.2882C69.4847 71.4155 69.2153 71.5005 68.9375 71.5398L69.2733 72.1693L88.9107 60.7984V60.5464L88.4072 59.707C88.3233 60.2945 87.9457 60.798 87.4422 61.0917Z" fill="url(#paint3_linear_972_918)"/>
<path fill-rule="evenodd" clip-rule="evenodd" d="M87.4422 61.0917L69.7348 71.2882C69.4847 71.4155 69.2153 71.5005 68.9375 71.5398L69.2733 72.1693L88.9107 60.7984V60.5464L88.4072 59.707C88.3233 60.2945 87.9457 60.798 87.4422 61.0917Z" fill="url(#paint4_linear_972_918)"/>
</g>
</g>
<defs>
<linearGradient id="paint0_linear_972_918" x1="2746.99" y1="814.896" x2="810.722" y2="3857.36" gradientUnits="userSpaceOnUse">
<stop stop-color="#41873F"/>
<stop offset="0.3288" stop-color="#418B3D"/>
<stop offset="0.6352" stop-color="#419637"/>
<stop offset="0.9319" stop-color="#3FA92D"/>
<stop offset="1" stop-color="#3FAE2A"/>
</linearGradient>
<linearGradient id="paint1_linear_972_918" x1="1721.7" y1="2512.88" x2="6571.04" y2="-121.779" gradientUnits="userSpaceOnUse">
<stop offset="0.1376" stop-color="#41873F"/>
<stop offset="0.4032" stop-color="#54A044"/>
<stop offset="0.7136" stop-color="#66B848"/>
<stop offset="0.9081" stop-color="#6CC04A"/>
</linearGradient>
<linearGradient id="paint2_linear_972_918" x1="-119.547" y1="2281.53" x2="3968.18" y2="2281.53" gradientUnits="userSpaceOnUse">
<stop offset="0.09192" stop-color="#6CC04A"/>
<stop offset="0.2864" stop-color="#66B848"/>
<stop offset="0.5968" stop-color="#54A044"/>
<stop offset="0.8624" stop-color="#41873F"/>
</linearGradient>
<linearGradient id="paint3_linear_972_918" x1="-2005.5" y1="686.249" x2="2082.18" y2="686.249" gradientUnits="userSpaceOnUse">
<stop offset="0.09192" stop-color="#6CC04A"/>
<stop offset="0.2864" stop-color="#66B848"/>
<stop offset="0.5968" stop-color="#54A044"/>
<stop offset="0.8624" stop-color="#41873F"/>
</linearGradient>
<linearGradient id="paint4_linear_972_918" x1="2677.7" y1="-2570.7" x2="1642.13" y2="2855.65" gradientUnits="userSpaceOnUse">
<stop stop-color="#41873F"/>
<stop offset="0.3288" stop-color="#418B3D"/>
<stop offset="0.6352" stop-color="#419637"/>
<stop offset="0.9319" stop-color="#3FA92D"/>
<stop offset="1" stop-color="#3FAE2A"/>
</linearGradient>
<clipPath id="clip0_972_918">
<rect width="185.885" height="114" fill="white" transform="translate(0 0.5)"/>
</clipPath>
</defs>
</svg>
